<svg xmlns="http://www.w3.org/2000/svg" xmlns:xlink="http://www.w3.org/1999/xlink" version="1.1" font-family="sans-serif, droid-sans, helvetica, verdana, tahoma" viewbox="0 0 600 333" width="600" height="333" preserveAspectRatio="xMinYMin meet"><rect x="0" y="0" width="600" height="333" fill="#FEFEFE"/><g stroke="#757575" stroke-width="1"><line x1="123" y1="64" x2="123" y2="295"/><line x1="123" y1="294" x2="586" y2="294"/></g><a xlink:href="/prospect/2003265-NI-LINUX56IO44/6147a43a9f5dfec0af01ca537d963d4c63e05c86" xlink:show="new"><g transform="translate(575,49)" width="10" height="16"><path d="M5 0v6.5L0 11l3-3-3-3.5L5 0" fill="#038bb8"/><path d="M5 0v6.5l5 4.5-3-3 3-3.5L5 0" fill="#25b3e8"/><path d="M5 16V9l5-4.5V11l-5 5" fill="#e4f4fd"/><path d="M5 16V9L0 4.5V11l5 5" fill="#65cbf4"/></g></a><a xlink:href="https://www.openbenchmarking.org/" xlink:show="new"><text x="573" y="59" font-size="8" fill="#065695" text-anchor="end" font-weight="bold" xlink:show="new">OpenBenchmarking.org</text></a><polygon points="132,56 123,60.5 123,51.5" fill="#065695" stroke="#949494" stroke-width="1"/><text x="135" y="59" font-size="8" font-weight="bold" fill="#065695" text-anchor="start">Op/s, More Is Better</text><a xlink:href="https://openbenchmarking.org/test/pts/cassandra-1.0.2" xlink:show="new"><text x="6" y="19" font-size="17" fill="#231f20" text-anchor="start" xlink:show="new" font-weight="bold">Apache Cassandra v3.11.4</text></a><text x="6" y="36" font-size="11" font-weight="bold" fill="#231f20" text-anchor="start">Test: Writes</text><a xlink:href="https://www.phoronix-test-suite.com/" xlink:show="new"><path d="m74 22v9m-5-16v16m-5-28v28m-23-2h12.5c2.485281 0 4.5-2.014719 4.5-4.5s-2.014719-4.5-4.5-4.5h-8c-2.485281 0-4.5-2.014719-4.5-4.5s2.014719-4.5 4.5-4.5h12.5m-21 5h-11m11 13h-2c-4.970563 0-9-4.029437-9-9v-20m-24 40v-20c0-4.970563 4.0294373-9 9-9 4.970563 0 9 4.029437 9 9s-4.029437 9-9 9h-9" stroke="#231f20" stroke-width="4" fill="none" xlink:show="new" transform="translate(508,4)"/></a><line x1="123" y1="110" x2="123" y2="283" stroke="#757575" stroke-width="11" stroke-dasharray="1,45"/><g font-size="10" fill="#231f20" font-weight="bold"><text x="118" y="85" text-anchor="end">None</text><text x="118" y="131" text-anchor="end">BFQ</text><text x="118" y="177" text-anchor="end">Kyber</text><text x="118" y="223" text-anchor="end">BFQ low-latency</text><text x="118" y="269" text-anchor="end">MQ-Deadline</text></g><g font-size="10" fill="#065695" text-anchor="middle"><text x="202" y="309">60000</text><text x="279" y="309">120000</text><text x="356" y="309">180000</text><text x="433" y="309">240000</text><text x="510" y="309">300000</text></g><g stroke="#BABABA" stroke-width="1"><line x1="202" y1="64" x2="202" y2="289" stroke-dasharray="5,5"/><line x1="202" y1="290" x2="202" y2="299"/><line x1="279" y1="64" x2="279" y2="289" stroke-dasharray="5,5"/><line x1="279" y1="290" x2="279" y2="299"/><line x1="356" y1="64" x2="356" y2="289" stroke-dasharray="5,5"/><line x1="356" y1="290" x2="356" y2="299"/><line x1="433" y1="64" x2="433" y2="289" stroke-dasharray="5,5"/><line x1="433" y1="290" x2="433" y2="299"/><line x1="510" y1="64" x2="510" y2="289" stroke-dasharray="5,5"/><line x1="510" y1="290" x2="510" y2="299"/></g><g stroke="#949494" stroke-width="1"><rect x="123" y="70" height="34" width="374" fill="#2196f3"/><rect x="123" y="116" height="34" width="363" fill="#2196f3"/><rect x="123" y="162" height="34" width="358" fill="#2196f3"/><rect x="123" y="208" height="34" width="351" fill="#2196f3"/><rect x="123" y="254" height="34" width="348" fill="#2196f3"/></g><g font-size="8" fill="#065695" text-anchor="end"><text y="101" x="118">SE +/- 4255.75, N = 3</text><text y="147" x="118">SE +/- 3156.44, N = 15</text><text y="193" x="118">SE +/- 2588.05, N = 15</text><text y="239" x="118">SE +/- 1752.30, N = 3</text><text y="285" x="118">SE +/- 3838.79, N = 3</text></g><g font-size="10" fill="#FFFFFF" font-weight="bold" text-anchor="end"><text x="492" y="93">291627</text><text x="481" y="139">282883</text><text x="476" y="185">279252</text><text x="469" y="231">273739</text><text x="466" y="277">271238</text></g><g stroke="#757575" stroke-width="1"><line x1="492" y1="70" x2="492" y2="78"/><line x1="502" y1="70" x2="502" y2="78"/><line x1="492" y1="70" x2="502" y2="70"/></g><g stroke="#757575" stroke-width="1"><line x1="466" y1="254" x2="466" y2="262"/><line x1="476" y1="254" x2="476" y2="262"/><line x1="466" y1="254" x2="476" y2="254"/></g></svg>
