<?xml version="1.0" encoding="UTF-8" standalone="no"?>
<!-- Created with Inkscape (http://www.inkscape.org/) -->

<svg
   width="115.43989mm"
   height="142.84142mm"
   viewBox="0 0 115.43989 142.84142"
   version="1.1"
   id="svg5"
   xml:space="preserve"
   inkscape:version="1.2.2 (b0a8486541, 2022-12-01)"
   sodipodi:docname="door.svg"
   xmlns:inkscape="http://www.inkscape.org/namespaces/inkscape"
   xmlns:sodipodi="http://sodipodi.sourceforge.net/DTD/sodipodi-0.dtd"
   xmlns="http://www.w3.org/2000/svg"
   xmlns:svg="http://www.w3.org/2000/svg"><sodipodi:namedview
     id="namedview7"
     pagecolor="#505050"
     bordercolor="#ffffff"
     borderopacity="1"
     inkscape:showpageshadow="0"
     inkscape:pageopacity="0"
     inkscape:pagecheckerboard="1"
     inkscape:deskcolor="#505050"
     inkscape:document-units="mm"
     showgrid="false"
     inkscape:zoom="0.77593294"
     inkscape:cx="-212.00286"
     inkscape:cy="300.92807"
     inkscape:window-width="1918"
     inkscape:window-height="1028"
     inkscape:window-x="0"
     inkscape:window-y="0"
     inkscape:window-maximized="1"
     inkscape:current-layer="layer1" /><defs
     id="defs2" /><g
     inkscape:label="Ebene 1"
     inkscape:groupmode="layer"
     id="layer1"
     transform="translate(-54.930428,-69.275879)"><path
       style="fill:#000000;stroke-width:0.264583"
       d="m 109.22069,198.29223 c -2.25557,-0.42533 -9.875569,-1.87018 -16.93333,-3.21077 L 79.455068,192.64402 74.03111,192.51084 68.607152,192.37766 68.47486,138.00579 C 68.38632,101.61525 68.43117,83.415168 68.610481,82.972458 l 0.267914,-0.66146 17.988338,-0.16256 c 18.411757,-0.16638 18.882757,-0.18676 24.338337,-1.053 4.7184,-0.74919 9.1696,-0.57253 9.70558,0.3852 0.21541,0.38492 1.0438,0.43349 7.39354,0.43349 h 7.15096 l 0.73185,0.73185 0.73185,0.73185 -0.1263,6.12844 c -0.0695,3.37065 -0.0581,6.3061 0.0252,6.52322 0.13415,0.34958 0.29723,0.34984 1.42461,0.002 1.74658,-0.53843 5.74606,-0.75823 7.38826,-0.40604 2.92916,0.62819 4.34838,1.36386 6.19657,3.21204 2.29052,2.290522 2.75609,3.544592 2.73467,7.366052 -0.0188,3.34618 -0.32217,3.88568 -2.63757,4.69007 -0.85849,0.29824 -2.10713,0.86495 -2.77476,1.25936 -1.36464,0.80618 -2.54466,0.90781 -3.68622,0.31749 -1.66529,-0.86115 -1.81716,-3.02188 -0.39157,-5.57107 1.01228,-1.81014 1.13449,-2.60979 0.53062,-3.47194 -0.94989,-1.35615 -4.61284,-0.72328 -6.11774,1.05701 -2.76567,3.27176 -2.03659,5.93443 3.39106,12.38446 1.73014,2.05603 3.45,4.33875 3.82192,5.07269 1.50468,2.96935 1.20834,8.75824 -0.63949,12.49201 -1.54532,3.12254 -4.42742,5.98567 -7.48886,7.43961 l -1.5673,0.74433 v 24.50817 c 0,23.40709 -0.0217,24.52783 -0.48385,24.94604 -0.42524,0.38484 -1.35472,0.43789 -7.67292,0.43789 h -7.18906 v 2.35193 c 0,3.06903 -0.19568,3.30932 -3.13808,3.85353 -2.98705,0.55246 -4.48499,0.48428 -9.29734,-0.42319 z m 9.26042,-1.50912 c 0.50932,-0.22149 1.01534,-0.38059 1.12448,-0.35356 0.10914,0.027 0.19844,-25.48975 0.19844,-56.70397 0,-50.270832 -0.0453,-56.753122 -0.39688,-56.753122 -0.21828,0 -0.39687,-0.11906 -0.39687,-0.26458 0,-0.14553 -0.45614,-0.26459 -1.01363,-0.26459 -0.78928,0 -1.07749,0.13176 -1.30218,0.59531 -0.20415,0.42117 -0.33321,17.256692 -0.44119,57.551822 l -0.15263,56.9565 0.72721,-0.18055 c 0.39997,-0.0993 1.14393,-0.36177 1.65325,-0.58326 z m -3.41058,-4.07472 c 0.016,-2.51023 0.0587,-4.92125 0.0951,-5.35781 0.0363,-0.43656 0.15043,-14.72406 0.25352,-31.75 0.10309,-17.02593 0.28938,-40.36219 0.41398,-51.85833 0.12461,-11.496152 0.14539,-20.986342 0.0462,-21.089312 -0.0992,-0.10298 -8.39477,1.03019 -18.434594,2.51814 l -18.254231,2.70537 -0.06681,51.225472 c -0.05319,40.78043 7.94e-4,51.2804 0.264583,51.49489 0.182269,0.14819 6.522649,1.42547 14.089732,2.83841 7.56708,1.41294 15.18708,2.84336 16.93333,3.17871 1.74625,0.33535 3.50242,0.62071 3.9026,0.63413 l 0.72761,0.0244 z m -1.69751,2.80737 c -0.21138,-0.21138 0.0276,-0.62455 0.3612,-0.62455 0.13694,0 0.24897,0.17859 0.24897,0.39687 0,0.40915 -0.3122,0.52565 -0.61017,0.22768 z m -8.70402,-1.63505 c -0.16829,-0.70662 0.0594,-1.37075 0.47005,-1.37075 0.23993,0 0.37748,0.27892 0.37748,0.76544 0,0.84081 -0.67639,1.32389 -0.84753,0.60531 z m 4.4194,0.21675 c 0.0899,-0.14553 0.27556,-0.26459 0.41249,-0.26459 0.13693,0 0.24897,0.11906 0.24897,0.26459 0,0.14552 -0.18562,0.26458 -0.41249,0.26458 -0.22687,0 -0.33891,-0.11906 -0.24897,-0.26458 z m -6.48229,-0.66146 c 0,-0.24254 0.12799,-0.39831 0.28443,-0.34617 0.15643,0.0521 0.28442,0.20792 0.28442,0.34617 0,0.13824 -0.12799,0.29402 -0.28442,0.34616 -0.15644,0.0522 -0.28443,-0.10363 -0.28443,-0.34616 z m -2.00598,-0.22547 c -0.23459,-0.61135 -0.0139,-1.83875 0.35233,-1.95899 0.22779,-0.0748 0.33073,0.22283 0.33073,0.95617 0,1.09235 -0.41493,1.70154 -0.68306,1.00282 z m -3.910241,-0.61957 c -0.297968,-0.29797 -0.181475,-0.61017 0.227679,-0.61017 0.218282,0 0.396875,0.11203 0.396875,0.24897 0,0.33363 -0.41317,0.57258 -0.624554,0.3612 z m -1.756696,-0.72685 c 0,-0.70173 0.446352,-1.13899 0.78916,-0.77308 0.266864,0.28485 -0.14559,1.41893 -0.516051,1.41893 -0.15021,0 -0.273109,-0.29063 -0.273109,-0.64585 z m 16.404167,0.24897 c 0,-0.21828 0.11906,-0.39687 0.26458,-0.39687 0.14552,0 0.26459,0.17859 0.26459,0.39687 0,0.21828 -0.11907,0.39688 -0.26459,0.39688 -0.14552,0 -0.26458,-0.1786 -0.26458,-0.39688 z m -18.955613,-0.53253 c -0.200207,-0.52174 0.441183,-1.34042 0.709724,-0.90591 0.235532,0.38109 0.01307,1.30615 -0.314108,1.30615 -0.133114,0 -0.311142,-0.18011 -0.395616,-0.40024 z m 6.118773,-0.1824 c -0.213146,-0.54967 0.0357,-1.00486 0.549331,-1.00486 0.48257,0 0.48358,0.289 0.003,0.94162 -0.345995,0.47013 -0.392755,0.47548 -0.552611,0.0632 z m 4.10559,-0.18906 c 0,-0.325 0.17084,-0.55122 0.41627,-0.55122 0.24639,0 0.38137,0.18002 0.33073,0.4411 -0.12873,0.66378 -0.747,0.75492 -0.747,0.11012 z m -16.275354,-0.33733 c -0.256593,-0.66166 -0.04484,-1.40451 0.400354,-1.40451 0.538842,0 0.622342,0.69815 0.158835,1.32803 -0.350105,0.47578 -0.401611,0.48282 -0.559189,0.0765 z m 23.195394,-0.32968 c 0.0503,-0.24273 0.21048,-0.43504 0.356,-0.42735 0.39272,0.0207 0.32057,0.61267 -0.0914,0.75 -0.22255,0.0742 -0.32173,-0.0468 -0.26459,-0.32265 z m -25.333897,-0.25164 c -0.172503,-0.44954 0.05933,-0.95548 0.437806,-0.95548 0.333677,0 0.319246,0.98366 -0.01749,1.19178 -0.14655,0.0906 -0.335693,-0.0158 -0.420322,-0.2363 z m 9.860854,-0.53426 c -0.148873,-0.38796 0.02268,-0.68581 0.395018,-0.68581 0.295476,0 0.282429,0.72424 -0.01638,0.90891 -0.13027,0.0805 -0.300662,-0.0199 -0.378642,-0.2231 z m 6.700923,-0.0243 c 0,-0.21828 0.11906,-0.39687 0.26458,-0.39687 0.14552,0 0.26458,0.17859 0.26458,0.39687 0,0.21828 -0.11906,0.39688 -0.26458,0.39688 -0.14552,0 -0.26458,-0.1786 -0.26458,-0.39688 z m 4.23333,-0.51355 c 0,-0.22687 0.11906,-0.41249 0.26458,-0.41249 0.14552,0 0.26459,0.11203 0.26459,0.24897 0,0.13693 -0.11907,0.32255 -0.26459,0.41249 -0.14552,0.0899 -0.26458,-0.0221 -0.26458,-0.24897 z m -25.135417,-0.41254 c 0,-0.29398 0.17639,-0.52917 0.396875,-0.52917 0.220486,0 0.396875,0.23519 0.396875,0.52917 0,0.29398 -0.176389,0.52917 -0.396875,0.52917 -0.220485,0 -0.396875,-0.23519 -0.396875,-0.52917 z m 10.459673,-0.5152 c -0.232633,-0.37641 0.06403,-0.80772 0.555551,-0.80772 0.231814,0 0.364609,0.18589 0.315113,0.4411 -0.10306,0.5314 -0.631338,0.75385 -0.870664,0.36662 z m 8.49494,0.067 c -0.327081,-0.32708 -0.164764,-1.13933 0.227675,-1.13933 0.21829,0 0.39688,0.2311 0.39688,0.51355 0,0.55225 -0.3487,0.90164 -0.624555,0.62578 z m -17.014722,-0.76297 c -0.08809,-0.22957 0.03033,-0.60789 0.263165,-0.84073 0.388057,-0.38805 0.437528,-0.38634 0.593654,0.0205 0.206327,0.53769 -0.02864,1.23761 -0.41546,1.23761 -0.154654,0 -0.353266,-0.18783 -0.441359,-0.41739 z m 4.674693,-0.0897 c 0,-0.325 0.170838,-0.55121 0.416274,-0.55121 0.246391,0 0.381365,0.18001 0.330729,0.44109 -0.128733,0.66378 -0.747003,0.75492 -0.747003,0.11012 z m 11.773958,-2.00851 C 92.274131,184.43539 86.4996,183.40432 85.408193,183.20515 l -1.984375,-0.36212 0.07975,-6.06988 c 0.05473,-4.16555 0.177641,-6.18784 0.391766,-6.44584 0.241623,-0.29114 0.760849,-0.34109 2.301499,-0.22141 1.702994,0.1323 11.992502,1.2944 21.039487,2.37622 l 2.64583,0.31638 0.0706,7.12541 c 0.0547,5.52413 -0.005,7.17321 -0.26459,7.33813 -0.18432,0.117 -0.39467,0.20166 -0.46743,0.18812 -0.0728,-0.0135 -5.01385,-0.89272 -10.980206,-1.95375 z m 11.452785,-5.50308 c 0.0901,-4.52244 0.0418,-6.5113 -0.16117,-6.63672 -0.54571,-0.33727 -24.665686,-2.90029 -24.918141,-2.64784 -0.325059,0.32506 -0.685887,11.74315 -0.371618,11.75949 0.131895,0.007 5.776217,1.00178 12.542936,2.21094 6.766713,1.20916 12.410283,2.10247 12.541263,1.98512 0.13097,-0.11734 0.296,-3.11928 0.36673,-6.67099 z m -13.265035,3.778 c -5.944447,-0.99456 -10.980611,-1.87449 -11.191478,-1.95541 -0.325234,-0.1248 -0.355958,-0.92027 -0.202544,-5.24373 0.09947,-2.80313 0.223369,-5.14528 0.275333,-5.20477 0.146807,-0.16806 23.314474,2.72346 23.513934,2.93473 0.0435,0.0461 0.002,2.58416 -0.0925,5.6401 l -0.17171,5.55625 -0.66145,0.0406 c -0.36381,0.0223 -5.5251,-0.77318 -11.469545,-1.76773 z m 11.304175,0.50347 c 0.23666,-1.1833 0.20498,-9.75651 -0.0361,-9.75651 -0.11078,0 -4.96123,-0.59531 -10.778782,-1.32292 -5.81755,-0.7276 -10.787065,-1.32291 -11.043369,-1.32291 -0.427675,0 -0.466006,0.39132 -0.466006,4.75746 0,4.71656 0.0051,4.75864 0.595313,4.89484 0.327422,0.0756 4.345781,0.74075 8.929687,1.47818 4.583908,0.73743 9.227347,1.49834 10.318747,1.6909 1.09141,0.19257 2.05879,0.36309 2.14974,0.37895 0.091,0.0159 0.23978,-0.34324 0.33073,-0.79799 z m -3.66843,-1.55011 c -0.19514,-0.31575 0.0525,-0.79807 0.40983,-0.79807 0.32194,0 0.32403,0.71613 0.003,0.91474 -0.13547,0.0837 -0.32109,0.0312 -0.41249,-0.11667 z m -4.632869,-1.17289 c 0,-0.23041 0.18851,-0.41893 0.41892,-0.41893 0.230409,0 0.371799,0.14139 0.314189,0.3142 -0.16353,0.49059 -0.733109,0.57196 -0.733109,0.10473 z m -6.879168,-0.5356 c 0,-0.22687 0.119063,-0.41249 0.264584,-0.41249 0.14552,0 0.264583,0.11203 0.264583,0.24896 0,0.13694 -0.119063,0.32256 -0.264583,0.41249 -0.145521,0.0899 -0.264584,-0.0221 -0.264584,-0.24896 z m 4.946081,-0.0525 c -0.211383,-0.21139 0.02757,-0.62456 0.361202,-0.62456 0.136932,0 0.248967,0.1786 0.248967,0.39688 0,0.40915 -0.312197,0.52565 -0.610169,0.22768 z m -11.250339,-0.79897 c 0.05159,-0.26787 0.270761,-0.48705 0.48705,-0.48705 0.567134,0 0.485219,0.7688 -0.0938,0.88031 -0.353589,0.0681 -0.461346,-0.0397 -0.393252,-0.39326 z m 2.73092,0.17204 c -0.254151,-0.41122 0.123516,-1.32054 0.54846,-1.32054 0.244772,0 0.379045,0.28117 0.379045,0.79375 0,0.78663 -0.567653,1.10904 -0.927505,0.52679 z m 7.0538,-1.17176 c 0.05028,-0.24272 0.210476,-0.43503 0.355997,-0.42734 0.392718,0.0207 0.320569,0.61267 -0.09141,0.75 -0.222546,0.0742 -0.321731,-0.0468 -0.264583,-0.32266 z m 6.573705,0.1158 c 0,-0.14552 0.17859,-0.26458 0.39687,-0.26458 0.21829,0 0.39688,0.11906 0.39688,0.26458 0,0.14552 -0.17859,0.26458 -0.39688,0.26458 -0.21828,0 -0.39687,-0.11906 -0.39687,-0.26458 z m -11.288228,-0.41466 c -0.209325,-0.54549 0.339309,-1.11509 0.713568,-0.74083 0.303001,0.303 0.07439,1.15549 -0.309867,1.15549 -0.13452,0 -0.316185,-0.1866 -0.403701,-0.41466 z m 14.504108,-0.26055 c 0.0503,-0.25936 0.25161,-0.52491 0.44741,-0.59011 0.22771,-0.0758 0.32305,0.0514 0.26458,0.35303 -0.0503,0.25936 -0.25161,0.52491 -0.44741,0.59011 -0.22771,0.0758 -0.32306,-0.0514 -0.26458,-0.35303 z m -16.668752,-1.29267 c 0.05028,-0.24273 0.210476,-0.43503 0.355997,-0.42735 0.392718,0.0207 0.320569,0.61268 -0.09141,0.75001 -0.222546,0.0742 -0.32173,-0.0468 -0.264583,-0.32266 z m -2.157545,-1.07483 c 0,-0.41157 0.149932,-0.66146 0.396875,-0.66146 0.427027,0 0.490337,0.24233 0.236276,0.9044 -0.247174,0.64413 -0.633151,0.49603 -0.633151,-0.24294 z m 11.810863,0.2133 c -0.31622,-0.31622 -0.170844,-0.87476 0.227675,-0.87476 0.21829,0 0.39688,0.17157 0.39688,0.38126 0,0.44203 -0.37764,0.74042 -0.624555,0.4935 z m 7.158134,0.0144 c -0.21138,-0.21139 0.0276,-0.62456 0.3612,-0.62456 0.13693,0 0.24897,0.17859 0.24897,0.39687 0,0.40916 -0.3122,0.52565 -0.61017,0.22768 z m -11.435521,-0.4439 c -0.109336,-0.26903 -0.06534,-0.61088 0.0999,-0.77611 0.446386,-0.44639 0.688954,-0.0185 0.373671,0.65907 -0.255233,0.54856 -0.294272,0.55821 -0.473571,0.11704 z m 8.870691,-0.18066 c 0,-0.51573 0.28063,-0.68951 0.59913,-0.37101 0.21196,0.21196 -0.0655,0.90017 -0.36286,0.90017 -0.12995,0 -0.23627,-0.23812 -0.23627,-0.52916 z m -7.14375,-0.79375 c 0,-0.51573 0.280636,-0.68951 0.59913,-0.37101 0.211963,0.21196 -0.06545,0.90017 -0.362854,0.90017 -0.129951,0 -0.236276,-0.23812 -0.236276,-0.52916 z m -4.894792,-0.52917 c -0.21577,-0.34912 0.100598,-0.84457 0.415158,-0.65016 0.321366,0.19862 0.319278,0.91474 -0.0027,0.91474 -0.136933,0 -0.322554,-0.11906 -0.412491,-0.26458 z m -4.461012,-0.18358 c -0.31622,-0.31622 -0.170844,-0.87475 0.227679,-0.87475 0.218281,0 0.396875,0.17156 0.396875,0.38126 0,0.44202 -0.377634,0.74041 -0.624554,0.49349 z m 5.916221,12.24417 c 0,-0.23041 0.188515,-0.41892 0.418922,-0.41892 0.23041,0 0.371796,0.14138 0.314193,0.31419 -0.163531,0.49059 -0.733115,0.57196 -0.733115,0.10473 z m -3.924869,-0.4556 c 0.04863,-0.34363 0.207473,-0.59502 0.352994,-0.55864 0.390572,0.0977 0.321601,0.92909 -0.08841,1.06576 -0.242004,0.0807 -0.325194,-0.0788 -0.264584,-0.50712 z m -8.998837,-0.0791 c 0.05028,-0.24273 0.210477,-0.43503 0.355997,-0.42735 0.392719,0.0207 0.32057,0.61268 -0.09141,0.75 -0.222547,0.0742 -0.321731,-0.0468 -0.264584,-0.32265 z m 33.079779,-0.45879 c 0.12464,-0.84707 0.74601,-0.93779 0.74601,-0.10892 0,0.44463 -0.14513,0.68351 -0.41528,0.68351 -0.27578,0 -0.38687,-0.19301 -0.33073,-0.57459 z m -28.755032,0.0454 c -0.192934,-0.31217 0.05733,-0.79375 0.412491,-0.79375 0.136933,0 0.248968,0.23812 0.248968,0.52917 0,0.55802 -0.384937,0.712 -0.661459,0.26458 z m 27.119792,-1.05833 c 0,-0.29105 0.11906,-0.52917 0.26458,-0.52917 0.14552,0 0.26459,0.23812 0.26459,0.52917 0,0.29104 -0.11907,0.52916 -0.26459,0.52916 -0.14552,0 -0.26458,-0.23812 -0.26458,-0.52916 z m 1.5875,-1.7198 c 0,-0.44685 0.12127,-0.66513 0.33073,-0.59531 0.1819,0.0606 0.33073,0.32853 0.33073,0.59531 0,0.26679 -0.14883,0.53468 -0.33073,0.59532 -0.20946,0.0698 -0.33073,-0.14846 -0.33073,-0.59532 z m 0.39122,-4.15451 c -0.22522,-0.5845 0.10229,-1.14635 0.45981,-0.78883 0.17313,0.17313 0.16903,0.42802 -0.0121,0.75066 -0.25276,0.45031 -0.28777,0.4533 -0.44773,0.0382 z m -33.199553,-1.77659 c 0,-0.325 0.170838,-0.55122 0.416274,-0.55122 0.24639,0 0.381365,0.18002 0.330729,0.4411 -0.128733,0.66378 -0.747003,0.75492 -0.747003,0.11012 z m 31.271543,-1.36481 c 0.0521,-0.15644 0.20792,-0.28443 0.34616,-0.28443 0.13825,0 0.29402,0.12799 0.34617,0.28443 0.0521,0.15643 -0.10363,0.28443 -0.34617,0.28443 -0.24253,0 -0.39831,-0.128 -0.34616,-0.28443 z m 0.40186,-3.68406 c -0.14543,-0.55614 0.17407,-0.92852 0.58092,-0.67707 0.27398,0.16932 0.0679,1.20597 -0.23974,1.20597 -0.11158,0 -0.26511,-0.238 -0.34118,-0.5289 z m -5.74424,-1.19089 c 0,-0.24253 0.12799,-0.39831 0.28443,-0.34616 0.15643,0.0521 0.28443,0.20792 0.28443,0.34616 0,0.13825 -0.128,0.29402 -0.28443,0.34616 -0.15644,0.0521 -0.28443,-0.10362 -0.28443,-0.34616 z m -25.999127,-0.29045 c -0.257479,-0.25748 0.09604,-0.90017 0.495146,-0.90017 0.202711,0 0.368568,0.23812 0.368568,0.52916 0,0.4981 -0.515284,0.71944 -0.863714,0.37101 z m 18.06163,-0.10642 c 0,-0.14552 0.178594,-0.26459 0.396875,-0.26459 0.218282,0 0.396873,0.11907 0.396873,0.26459 0,0.14552 -0.178591,0.26458 -0.396873,0.26458 -0.218281,0 -0.396875,-0.11906 -0.396875,-0.26458 z m 2.293057,0.0882 c -0.30444,-0.30444 -0.19268,-0.61736 0.22048,-0.61736 0.21829,0 0.39688,0.17859 0.39688,0.39688 0,0.41316 -0.31292,0.52492 -0.61736,0.22048 z m -9.128342,-1.44779 c 0.04863,-0.34363 0.207473,-0.59501 0.352994,-0.55863 0.390572,0.0976 0.321601,0.92908 -0.08841,1.06575 -0.242004,0.0807 -0.325194,-0.0788 -0.264584,-0.50712 z m 4.844603,0.29106 c -0.266692,-0.43152 0.325707,-0.96685 0.678979,-0.61358 0.191341,0.19134 0.158043,0.37352 -0.108736,0.59493 -0.284221,0.23588 -0.43298,0.24075 -0.570243,0.0187 z m 6.263699,-0.24115 c 0.0582,-0.17463 0.19216,-0.30857 0.29766,-0.29766 0.31636,0.0327 0.25509,0.39563 -0.086,0.50933 -0.17463,0.0582 -0.26988,-0.037 -0.21167,-0.21167 z m -2.09572,-0.85659 c 0.16353,-0.49059 0.73312,-0.57196 0.73312,-0.10473 0,0.23041 -0.18852,0.41892 -0.41892,0.41892 -0.23041,0 -0.3718,-0.14138 -0.3142,-0.31419 z m 8.84701,-0.12678 c -0.30444,-0.30444 -0.19268,-0.61736 0.22048,-0.61736 0.21829,0 0.39688,0.17859 0.39688,0.39688 0,0.41316 -0.31292,0.52492 -0.61736,0.22048 z m 4.05694,-0.46945 c 0,-0.63357 0.42197,-1.13706 0.71084,-0.84818 0.22532,0.22532 -0.15791,1.49402 -0.45129,1.49402 -0.14275,0 -0.25955,-0.29063 -0.25955,-0.64584 z m -31.350455,-0.14359 c -0.195143,-0.31575 0.05254,-0.79807 0.409824,-0.79807 0.321945,0 0.324033,0.71613 0.0027,0.91474 -0.135466,0.0837 -0.321087,0.0312 -0.41249,-0.11667 z m 2.353268,-0.10718 c -0.172503,-0.44954 0.05933,-0.95548 0.437806,-0.95548 0.333677,0 0.319246,0.98367 -0.01749,1.19178 -0.14655,0.0906 -0.335693,-0.0158 -0.420322,-0.2363 z m 8.543271,0.19824 c -0.211383,-0.21139 0.02757,-0.62456 0.361202,-0.62456 0.136932,0 0.248967,0.1786 0.248967,0.39688 0,0.40915 -0.312197,0.52565 -0.610169,0.22768 z m 11.325796,-0.88914 c -0.19294,-0.31217 0.0573,-0.79375 0.41249,-0.79375 0.13693,0 0.24897,0.23813 0.24897,0.52917 0,0.55802 -0.38494,0.712 -0.66146,0.26458 z m -8.992626,-0.25939 c -0.107373,-0.17373 -0.07616,-0.43494 0.06936,-0.58047 0.34481,-0.34481 0.618881,0.0987 0.339926,0.55001 -0.162629,0.26314 -0.260954,0.27046 -0.409282,0.0305 z m 3.304083,-0.13748 c 0,-0.21829 0.119062,-0.39688 0.264583,-0.39688 0.145521,0 0.264581,0.17859 0.264581,0.39688 0,0.21828 -0.11906,0.39687 -0.264581,0.39687 -0.145521,0 -0.264583,-0.17859 -0.264583,-0.39687 z M 88.15986,165.94579 c -0.09685,-0.2524 -0.04513,-0.58987 0.114943,-0.74994 0.211667,-0.21167 0.339069,-0.16589 0.46714,0.16786 0.09685,0.25239 0.04513,0.58987 -0.114943,0.74994 -0.211666,0.21167 -0.339068,0.16589 -0.46714,-0.16786 z m 4.763643,-0.52618 c -0.172503,-0.44954 0.05933,-0.95549 0.437806,-0.95549 0.333677,0 0.319246,0.98367 -0.01749,1.19179 -0.14655,0.0906 -0.335693,-0.0158 -0.420322,-0.2363 z m 3.908343,-1.61738 c -7.032146,-0.90897 -12.883626,-1.75697 -13.003292,-1.88445 -0.265065,-0.28238 0.0633,-12.00789 0.349232,-12.47054 0.291621,-0.47185 1.760527,-0.42533 14.724155,0.46632 6.330159,0.43539 11.607319,0.79176 11.727019,0.79192 0.1197,1.7e-4 0.17923,3.21947 0.13229,7.154 -0.0717,6.00653 -0.14899,7.19387 -0.48222,7.40428 -0.21829,0.13783 -0.45641,0.23722 -0.52917,0.22087 -0.0728,-0.0164 -5.88587,-0.77343 -12.918014,-1.6824 z m 13.480614,-5.57734 c 0.0911,-3.62618 0.0653,-6.70228 -0.0575,-6.83578 -0.12278,-0.13349 -5.77925,-0.60137 -12.569926,-1.03973 -11.537752,-0.7448 -12.36803,-0.76783 -12.672425,-0.35154 -0.45307,0.61961 -0.728168,11.03703 -0.302472,11.45402 0.165656,0.16227 3.813535,0.73555 8.1064,1.27396 4.292864,0.53841 9.829273,1.25555 12.303123,1.59365 2.47385,0.33811 4.61698,0.58858 4.7625,0.55661 0.16227,-0.0357 0.32867,-2.60766 0.43031,-6.65119 z m -13.659475,4.11553 c -5.820833,-0.70137 -10.732161,-1.28436 -10.914062,-1.29554 -0.252601,-0.0155 -0.33073,-1.24111 -0.33073,-5.18802 0,-4.64932 0.04579,-5.18525 0.456481,-5.34284 0.251065,-0.0964 5.638644,0.23481 11.972395,0.7359 l 11.515911,0.91108 v 5.68854 5.68854 l -1.05833,0.0388 c -0.58208,0.0213 -5.82083,-0.53507 -11.641665,-1.23643 z m 11.824065,-4.29244 c 0.0502,-2.80128 0.0274,-5.17892 -0.0507,-5.28365 -0.20645,-0.2767 -22.173477,-1.93299 -22.416565,-1.69019 -0.196705,0.19648 -0.485995,9.39628 -0.297003,9.44507 0.248557,0.0642 21.600938,2.57153 22.098278,2.59494 0.56791,0.0267 0.57577,-0.0331 0.66603,-5.06617 z m -2.04873,2.95351 c -0.27266,-0.44117 0.34057,-0.94708 0.70557,-0.58209 0.30531,0.30531 0.11423,0.86972 -0.29445,0.86972 -0.12834,0 -0.31335,-0.12943 -0.41112,-0.28763 z m -6.685879,-0.65238 c 0.11966,-0.57471 0.589229,-0.60987 0.696629,-0.0522 0.0558,0.28961 -0.074,0.46302 -0.3465,0.46302 -0.254199,0 -0.400039,-0.17115 -0.350129,-0.41085 z m -4.412373,-0.11832 c -0.105608,-0.17088 -0.07296,-0.42975 0.07256,-0.57527 0.17639,-0.17639 0.328591,-0.16102 0.456602,0.0461 0.105608,0.17089 0.07296,0.42976 -0.07256,0.57528 -0.176389,0.17639 -0.328591,0.16102 -0.456602,-0.0461 z m 1.860714,-0.5152 c -0.232632,-0.37641 0.06403,-0.80772 0.555551,-0.80772 0.231815,0 0.364609,0.18589 0.315114,0.4411 -0.103061,0.53141 -0.631338,0.75386 -0.870665,0.36662 z m -5.854874,-0.38165 c -0.240644,-0.62711 0.3078,-1.17555 0.741674,-0.74168 0.249466,0.24947 0.222631,0.41615 -0.122568,0.76135 -0.41289,0.4129 -0.453612,0.4116 -0.619106,-0.0197 z m -2.223548,-1.33006 c 0,-1.15883 0.08853,-1.47726 0.410702,-1.47726 0.328578,0 0.394711,0.2736 0.330729,1.36827 -0.114543,1.95974 -0.741431,2.05189 -0.741431,0.10899 z m -2.116667,0.63941 c 0,-0.29398 0.17639,-0.52917 0.396875,-0.52917 0.220486,0 0.396875,0.23519 0.396875,0.52917 0,0.29398 -0.176389,0.52917 -0.396875,0.52917 -0.220485,0 -0.396875,-0.23519 -0.396875,-0.52917 z m 14.684377,0.26458 c -0.10561,-0.17088 -0.073,-0.42975 0.0726,-0.57527 0.17639,-0.17639 0.32859,-0.16102 0.4566,0.0461 0.10561,0.17088 0.073,0.42975 -0.0726,0.57527 -0.17639,0.17639 -0.32859,0.16102 -0.4566,-0.0461 z m -5.519348,-1.50649 c -0.297968,-0.29797 -0.181475,-0.61017 0.22768,-0.61017 0.218281,0 0.396875,0.11203 0.396875,0.24897 0,0.33363 -0.413171,0.57258 -0.624555,0.3612 z m 3.270389,-0.32354 c 0,-0.325 0.17084,-0.55122 0.41627,-0.55122 0.246389,0 0.381369,0.18002 0.330729,0.4411 -0.12873,0.66378 -0.746999,0.75492 -0.746999,0.11012 z m 4.948199,0.34004 c -0.0919,-0.0919 -0.0412,-0.40233 0.1127,-0.68987 0.33011,-0.6168 0.92662,-0.22366 0.67108,0.44229 -0.16539,0.43099 -0.49596,0.53541 -0.78378,0.24758 z m -13.032239,-0.64973 c -0.227047,-0.36736 0.276214,-0.8853 0.641096,-0.65979 0.303863,0.1878 0.109296,0.94743 -0.242666,0.94743 -0.121364,0 -0.300656,-0.12944 -0.39843,-0.28764 z m 2.263206,-0.24153 c 0,-0.34101 0.133987,-0.5286 0.330729,-0.46302 0.181901,0.0606 0.330729,0.269 0.330729,0.46302 0,0.19403 -0.148828,0.40239 -0.330729,0.46303 -0.196742,0.0656 -0.330729,-0.12201 -0.330729,-0.46303 z m -6.614584,-0.52916 c 0,-0.29398 0.17639,-0.52917 0.396875,-0.52917 0.220486,0 0.396875,0.23519 0.396875,0.52917 0,0.29398 -0.176389,0.52916 -0.396875,0.52916 -0.220485,0 -0.396875,-0.23518 -0.396875,-0.52916 z m 2.2225,-0.89959 c -0.09685,-0.25239 -0.04513,-0.58987 0.114943,-0.74994 0.211667,-0.21166 0.339069,-0.16589 0.467141,0.16786 0.09685,0.2524 0.04513,0.58987 -0.114943,0.74994 -0.211667,0.21167 -0.339069,0.16589 -0.467141,-0.16786 z m 13.387917,-0.55562 c 0,-0.44685 0.12127,-0.66513 0.33073,-0.59531 0.1819,0.0606 0.33073,0.32852 0.33073,0.59531 0,0.26679 -0.14883,0.53468 -0.33073,0.59531 -0.20946,0.0698 -0.33073,-0.14846 -0.33073,-0.59531 z m 3.96875,0.13229 c 0,-0.51572 0.28063,-0.6895 0.59913,-0.37101 0.21196,0.21197 -0.0654,0.90018 -0.36286,0.90018 -0.12995,0 -0.23627,-0.23813 -0.23627,-0.52917 z m -12.530804,-0.18358 c -0.340752,-0.34075 -0.168336,-1.40392 0.227679,-1.40392 0.244385,0 0.396875,0.24815 0.396875,0.64584 0,0.6639 -0.324662,1.05797 -0.624554,0.75808 z m 2.38125,-0.52917 c -0.31622,-0.31622 -0.170844,-0.87475 0.227679,-0.87475 0.218281,0 0.396875,0.17157 0.396875,0.38126 0,0.44203 -0.377634,0.74041 -0.624554,0.49349 z m -9.322636,-0.44843 c -0.172503,-0.44954 0.05933,-0.95549 0.437806,-0.95549 0.333676,0 0.319246,0.98367 -0.01749,1.19179 -0.14655,0.0906 -0.335693,-0.0158 -0.420323,-0.2363 z m -1.014434,11.30066 c -0.09555,-0.24899 0.0039,-0.61807 0.226555,-0.84072 0.352777,-0.35278 0.4158,-0.34756 0.567195,0.047 0.197765,0.51537 -0.02334,1.2376 -0.378849,1.2376 -0.134517,0 -0.321223,-0.19973 -0.414901,-0.44385 z m -6.052712,-0.51909 c -0.211383,-0.21139 0.02757,-0.62456 0.361202,-0.62456 0.136932,0 0.248967,0.1786 0.248967,0.39688 0,0.40915 -0.312197,0.52565 -0.610169,0.22768 z m 4.049753,-0.35997 c 0,-0.29398 0.176389,-0.52917 0.396875,-0.52917 0.445307,0 0.463203,0.0485 0.236275,0.63982 -0.226859,0.59118 -0.63315,0.52018 -0.63315,-0.11065 z m -2.38125,-1.69775 c 0,-0.2304 0.188515,-0.41892 0.418922,-0.41892 0.467236,0 0.385866,0.56959 -0.10473,0.73312 -0.172807,0.0576 -0.314192,-0.0838 -0.314192,-0.3142 z m -1.74625,-0.26017 c -0.09685,-0.2524 -0.04513,-0.58987 0.114943,-0.74994 0.211666,-0.21167 0.339068,-0.16589 0.46714,0.16786 0.09685,0.25239 0.04513,0.58987 -0.114943,0.74994 -0.211667,0.21167 -0.339069,0.16589 -0.46714,-0.16786 z m 1.65382,-2.39923 c -0.167336,-0.43608 0.22256,-0.78426 0.610042,-0.54478 0.280802,0.17354 0.07483,0.93318 -0.253029,0.93318 -0.114382,0 -0.275037,-0.17478 -0.357013,-0.3884 z m 30.254933,-0.66994 c 0,-0.51572 0.28063,-0.6895 0.59913,-0.371 0.21196,0.21196 -0.0655,0.90017 -0.36286,0.90017 -0.12995,0 -0.23627,-0.23812 -0.23627,-0.52917 z m 1.09802,-2.36802 c 0.11369,-0.34108 0.47659,-0.40235 0.50932,-0.086 0.0109,0.10551 -0.12303,0.23945 -0.29766,0.29766 -0.17462,0.0582 -0.26987,-0.037 -0.21166,-0.21167 z m -0.98418,-1.95028 c -0.21185,-0.55205 0.0528,-0.91252 0.40872,-0.55664 0.15028,0.15029 0.15418,0.40283 0.01,0.63641 -0.20299,0.32845 -0.26654,0.31634 -0.41854,-0.0798 z m -30.092762,-1.40714 c -0.211384,-0.21138 0.02757,-0.62456 0.361201,-0.62456 0.136933,0 0.248968,0.1786 0.248968,0.39688 0,0.40915 -0.312198,0.52565 -0.610169,0.22768 z m 31.831002,-2.19644 c 0,-0.13693 0.11906,-0.32255 0.26458,-0.41249 0.14552,-0.0899 0.26459,0.0221 0.26459,0.24897 0,0.22687 -0.11907,0.41249 -0.26459,0.41249 -0.14552,0 -0.26458,-0.11204 -0.26458,-0.24897 z m -33.407464,-0.70294 c -0.238506,-0.2385 0.08991,-0.91908 0.36227,-0.75075 0.130273,0.0805 0.236861,0.31796 0.236861,0.52765 0,0.38962 -0.315228,0.507 -0.599131,0.2231 z m 29.703294,-0.63559 c 0,-0.14552 0.11906,-0.26458 0.26459,-0.26458 0.14552,0 0.26458,0.11906 0.26458,0.26458 0,0.14552 -0.11906,0.26458 -0.26458,0.26458 -0.14553,0 -0.26459,-0.11906 -0.26459,-0.26458 z m 1.1614,0.077 c -0.1616,-0.11511 -0.501,-0.6135 -0.75423,-1.10753 l -0.46042,-0.89825 -2.55306,0.15144 c -3.93633,0.23348 -6.26104,-0.42317 -5.93342,-1.676 0.2491,-0.95256 1.13452,-1.15371 3.02077,-0.68627 1.44277,0.35755 1.96164,0.36923 3.64154,0.082 1.57379,-0.26907 1.99931,-0.44379 2.16382,-0.88849 0.49235,-1.33095 2.68461,-1.87251 3.65437,-0.90275 0.27565,0.27565 0.58435,0.99348 0.68601,1.59517 0.20996,1.24273 -0.25178,3.54212 -0.80319,3.99975 -0.46042,0.38212 -2.27387,0.60752 -2.66219,0.3309 z m 1.46523,-1.03872 c 0.68599,-0.8721 0.76589,-3.37248 0.1365,-4.27108 -0.50726,-0.7242 -1.32894,-0.76116 -1.69549,-0.0763 -0.43971,0.82161 -0.32751,1.03703 0.58601,1.12511 0.72157,0.0696 0.87361,0.20252 0.94516,0.82651 0.10571,0.92195 -0.35005,1.50536 -1.17599,1.50536 -0.7276,0 -0.82884,0.55618 -0.21329,1.17172 0.56912,0.56913 0.78123,0.52701 1.4171,-0.28136 z m 1.08044,-0.16276 c 0.94845,-1.55558 0.54912,-4.68961 -0.62639,-4.916 -0.46018,-0.0886 -0.46028,-0.0652 -0.003,0.63306 0.61167,0.93353 0.61568,3.1302 0.008,4.28294 -0.25382,0.48134 -0.33226,0.8599 -0.17817,0.8599 0.1514,0 0.51119,-0.38696 0.79955,-0.8599 z m -4.73546,-1.56073 c 0.17965,-0.28351 0.22738,-0.28619 0.23059,-0.0129 0.003,0.24905 0.38908,0.32239 1.39311,0.26458 1.21013,-0.0697 1.39996,-0.15666 1.47361,-0.67528 0.0791,-0.55687 -0.0116,-0.59532 -1.40467,-0.59532 -1.11458,0 -1.44225,0.0832 -1.3025,0.33073 0.14212,0.25175 0.10793,0.25806 -0.14317,0.0264 -0.22482,-0.20739 -1.14838,-0.2592 -2.89982,-0.16269 -1.7493,0.0964 -2.76009,0.0399 -3.16543,-0.17708 -0.4477,-0.23961 -0.68588,-0.24368 -0.95972,-0.0164 -0.461,0.38259 -0.26692,0.9043 0.47964,1.28931 0.82847,0.42726 5.99676,0.2046 6.29836,-0.27134 z m -0.51136,2.0899 c 0.0465,-0.32743 0.20361,-0.59532 0.34913,-0.59532 0.14552,0 0.30263,0.26789 0.34913,0.59532 0.0582,0.40962 -0.0507,0.59531 -0.34913,0.59531 -0.29841,0 -0.40731,-0.18569 -0.34913,-0.59531 z m -7.14475,-0.37495 c 0.12873,-0.66378 0.747,-0.75493 0.747,-0.11012 0,0.32499 -0.17084,0.55121 -0.41627,0.55121 -0.24639,0 -0.38137,-0.18001 -0.33073,-0.44109 z m 2.20221,0.17651 c 0.0899,-0.14552 0.27556,-0.26458 0.41249,-0.26458 0.13693,0 0.24897,0.11906 0.24897,0.26458 0,0.14552 -0.18562,0.26458 -0.41249,0.26458 -0.22687,0 -0.33891,-0.11906 -0.24897,-0.26458 z m -6.099663,-0.28764 c -0.272658,-0.44117 0.340574,-0.94708 0.70557,-0.58208 0.305308,0.30531 0.114226,0.86972 -0.294447,0.86972 -0.128344,0 -0.313349,-0.12944 -0.411123,-0.28764 z m -6.828015,-0.16053 c -0.340751,-0.34075 -0.168335,-1.40391 0.22768,-1.40391 0.244385,0 0.396875,0.24815 0.396875,0.64584 0,0.66389 -0.324663,1.05796 -0.624555,0.75807 z m -10.365623,-0.93761 c -0.232868,-0.60685 -0.03453,-2.1861 0.274553,-2.1861 0.362825,0 0.498644,1.98844 0.159014,2.32807 -0.188888,0.18889 -0.323519,0.14481 -0.433567,-0.14197 z m 3.984093,-0.18479 c -0.20646,-0.6505 0.01357,-1.07526 0.556982,-1.07526 0.276794,0 0.373216,0.21639 0.315114,0.70719 -0.103397,0.87343 -0.639845,1.09983 -0.872096,0.36807 z m 4.095668,-0.0169 c 0,-0.34102 0.133988,-0.5286 0.330729,-0.46302 0.181901,0.0606 0.330729,0.26899 0.330729,0.46302 0,0.19403 -0.148828,0.40238 -0.330729,0.46302 -0.196741,0.0656 -0.330729,-0.122 -0.330729,-0.46302 z m -6.217708,-0.52917 c -0.192935,-0.31217 0.05733,-0.79375 0.41249,-0.79375 0.136933,0 0.248968,0.23813 0.248968,0.52917 0,0.55803 -0.384937,0.712 -0.661458,0.26458 z m 12.950335,-0.28763 c -0.272658,-0.44118 0.340575,-0.94708 0.70557,-0.58209 0.305308,0.30531 0.114226,0.86972 -0.294447,0.86972 -0.128344,0 -0.313349,-0.12943 -0.411123,-0.28763 z m 4.379874,-0.10924 c 0,-0.21828 0.17859,-0.39688 0.39687,-0.39688 0.218289,0 0.396879,0.1786 0.396879,0.39688 0,0.21828 -0.17859,0.39687 -0.396879,0.39687 -0.21828,0 -0.39687,-0.17859 -0.39687,-0.39687 z m -8.592382,-0.38623 c -0.224382,-0.36306 -0.02574,-0.63563 0.365281,-0.50123 0.160142,0.055 0.180613,0.24183 0.04961,0.45268 -0.165368,0.26617 -0.272635,0.27872 -0.414891,0.0486 z m -4.311568,-0.32484 c 0.163531,-0.4906 0.733116,-0.57197 0.733116,-0.10473 0,0.23041 -0.188516,0.41892 -0.418923,0.41892 -0.23041,0 -0.371795,-0.14139 -0.314193,-0.31419 z m -2.069023,-0.8436 c -0.224158,-0.58415 0.07406,-0.88237 0.478216,-0.47821 0.238628,0.23862 0.239644,0.38653 0.0043,0.62191 -0.235379,0.23538 -0.350123,0.2012 -0.482479,-0.1437 z m 3.909854,-0.47548 c 0.119787,-1.21294 0.744368,-1.30404 0.744368,-0.10857 0,0.68344 -0.115464,0.94809 -0.413639,0.94809 -0.305641,0 -0.391991,-0.21919 -0.330729,-0.83952 z m 19.000618,0.19368 c 0,-0.22687 0.11906,-0.41249 0.26458,-0.41249 0.14552,0 0.26459,0.11203 0.26459,0.24897 0,0.13693 -0.11907,0.32255 -0.26459,0.41249 -0.14552,0.0899 -0.26458,-0.0221 -0.26458,-0.24897 z m -12.170833,-0.78732 c 0,-0.68343 0.115464,-0.94809 0.413639,-0.94809 0.305641,0 0.39199,0.21919 0.330729,0.83952 -0.119788,1.21294 -0.744368,1.30404 -0.744368,0.10857 z m 10.239243,0.28469 c -0.0749,-0.1951 -0.033,-0.52152 0.093,-0.72539 0.30875,-0.49957 0.9147,0.0836 0.69143,0.66545 -0.19497,0.50809 -0.60053,0.53909 -0.7844,0.0599 z m -25.43315,-0.35101 c -0.217017,-0.56553 0.26738,-1.09749 0.650496,-0.71437 0.287682,0.28768 0.08246,1.15549 -0.273256,1.15549 -0.114382,0 -0.284141,-0.1985 -0.37724,-0.44112 z m 13.123987,-0.26456 c 0.128733,-0.66378 0.747003,-0.75492 0.747003,-0.11012 0,0.325 -0.170839,0.55122 -0.416274,0.55122 -0.246391,0 -0.381365,-0.18002 -0.330729,-0.4411 z M 81.96861,142.636 c 0,-0.44685 0.121266,-0.66513 0.330729,-0.59531 0.181901,0.0606 0.330729,0.32852 0.330729,0.59531 0,0.26679 -0.148828,0.53468 -0.330729,0.59531 -0.209463,0.0698 -0.330729,-0.14846 -0.330729,-0.59531 z m 24.73854,-0.42447 c -1.45521,-0.1202 -6.957829,-0.51084 -12.228045,-0.86809 -5.27022,-0.35725 -9.705298,-0.72561 -9.855729,-0.81859 -0.341969,-0.21134 -0.384744,-47.133672 -0.04316,-47.344782 0.126696,-0.0783 5.97929,-0.85843 13.005769,-1.73362 9.890895,-1.23197 12.859705,-1.5213 13.148745,-1.28142 0.31902,0.26477 0.3465,4.0458 0.18889,25.993532 -0.11704,16.30041 -0.28032,25.80452 -0.44691,26.01442 -0.14436,0.1819 -0.45626,0.31416 -0.6931,0.29391 -0.23685,-0.0203 -1.62125,-0.13516 -3.07646,-0.25536 z m 3.65235,-25.9542 c 0.0919,-13.99894 0.11021,-25.509472 0.0407,-25.578962 -0.10555,-0.10554 -21.447499,2.37853 -24.132131,2.80883 l -0.859896,0.13783 v 23.219272 23.21927 l 0.859896,0.15437 c 0.472943,0.0849 4.729427,0.3974 9.458854,0.69444 4.729427,0.29704 8.896617,0.58017 9.260417,0.62918 0.3638,0.049 1.68377,0.10695 2.93327,0.12876 l 2.27181,0.0396 z m -10.796099,23.56882 c -3.346978,-0.27078 -7.633228,-0.58277 -9.524999,-0.69332 l -3.439584,-0.201 -0.08021,-19.84375 c -0.04412,-10.91406 -0.0032,-20.945602 0.09093,-22.292322 0.155382,-2.22313 0.223668,-2.46024 0.741672,-2.57523 0.787326,-0.17478 20.27181,-2.25224 21.12374,-2.25224 0.51181,0 0.73055,0.16801 0.85278,0.65499 0.28898,1.15139 -0.37367,47.050562 -0.68468,47.425312 -0.35228,0.42447 -1.40102,0.39878 -9.079639,-0.22244 z m 8.410849,-23.61611 c 0.11483,-12.78802 0.14044,-23.319282 0.0569,-23.402802 -0.23402,-0.23402 -20.064953,1.84063 -20.440164,2.13839 -0.259723,0.20611 -0.330729,4.88505 -0.330729,21.793602 0,11.84213 0.0893,21.53977 0.198437,21.5503 3.722701,0.35942 17.118376,1.23765 18.454686,1.20991 l 1.85208,-0.0384 z m -2.67159,21.77591 c 0.0521,-0.15644 0.20791,-0.28443 0.34616,-0.28443 0.13824,0 0.29402,0.12799 0.34616,0.28443 0.0521,0.15643 -0.10363,0.28443 -0.34616,0.28443 -0.24254,0 -0.39831,-0.128 -0.34616,-0.28443 z m -4.40504,-0.49104 c -0.19567,-0.3166 0.30205,-0.6303 0.65447,-0.41249 0.2959,0.18287 0.10165,0.65879 -0.2689,0.65879 -0.12834,0 -0.30185,-0.11084 -0.38557,-0.2463 z m -9.756787,-0.45926 c -0.322244,-0.32224 -0.182319,-0.88194 0.220485,-0.88194 0.220486,0 0.396875,0.23518 0.396875,0.52917 0,0.52711 -0.281924,0.68821 -0.61736,0.35277 z m 4.891572,-0.73315 c 0.05028,-0.24273 0.210476,-0.43504 0.355997,-0.42735 0.392718,0.0207 0.320569,0.61268 -0.09141,0.75 -0.222546,0.0742 -0.321731,-0.0468 -0.264583,-0.32265 z m -7.293531,-0.37553 c -0.229925,-0.37203 0.123751,-1.13532 0.472231,-1.01916 0.391644,0.13054 0.385159,1.0405 -0.0084,1.17167 -0.168566,0.0562 -0.377311,-0.0124 -0.463878,-0.15251 z m 4.702501,-0.17014 c -0.08376,-0.21828 -0.07565,-0.5966 0.01802,-0.84072 0.151394,-0.39453 0.214418,-0.39975 0.567195,-0.047 0.222644,0.22264 0.322104,0.59172 0.226555,0.84072 -0.211389,0.55087 -0.609574,0.57391 -0.811776,0.047 z m -2.307736,-1.10962 c -0.340752,-0.34075 -0.168336,-1.40392 0.227679,-1.40392 0.244385,0 0.396875,0.24815 0.396875,0.64585 0,0.66389 -0.324662,1.05796 -0.624554,0.75807 z m 7.900592,-0.081 c -0.215766,-0.34912 0.1006,-0.84457 0.41516,-0.65016 0.32137,0.19862 0.31928,0.91474 -0.003,0.91474 -0.13693,0 -0.32255,-0.11906 -0.41249,-0.26458 z m 4.020039,-0.1692 c -0.24692,-0.24692 0.0515,-0.62455 0.4935,-0.62455 0.20969,0 0.38126,0.17859 0.38126,0.39687 0,0.39853 -0.55854,0.5439 -0.87476,0.22768 z m -7.062743,-0.62455 c 0,-0.29398 0.176389,-0.52917 0.396875,-0.52917 0.220485,0 0.396875,0.23519 0.396875,0.52917 0,0.29398 -0.17639,0.52917 -0.396875,0.52917 -0.220486,0 -0.396875,-0.23519 -0.396875,-0.52917 z m -7.319479,-0.67924 c -0.209325,-0.5455 0.33931,-1.1151 0.713568,-0.74084 0.303001,0.303 0.07439,1.1555 -0.309866,1.1555 -0.13452,0 -0.316185,-0.1866 -0.403702,-0.41466 z m 16.996402,-0.29105 c -0.19353,-0.50433 0.20104,-1.02192 0.59393,-0.7791 0.29183,0.18036 0.105,1.22022 -0.21924,1.22022 -0.11298,0 -0.28159,-0.1985 -0.37469,-0.44112 z m -2.79056,-1.00541 c -0.36575,-0.4407 -0.15154,-0.93472 0.40529,-0.93472 0.41305,0 0.53006,0.93514 0.14666,1.1721 -0.12903,0.0797 -0.37741,-0.0271 -0.55195,-0.23738 z m -11.807613,-0.2468 c -0.09685,-0.2524 -0.04513,-0.58987 0.114943,-0.74994 0.211666,-0.21167 0.339068,-0.16589 0.46714,0.16786 0.09685,0.25239 0.04513,0.58987 -0.114943,0.74994 -0.211667,0.21167 -0.339069,0.16589 -0.46714,-0.16786 z m 2.45133,-0.73383 c -0.179374,-0.68592 -0.01775,-1.01242 0.50116,-1.01242 0.401384,0 0.489702,0.46788 0.22066,1.16898 -0.226052,0.58909 -0.544917,0.51992 -0.72182,-0.15656 z m -4.569706,-2.18104 c -0.218991,-0.57068 0.08571,-1.28164 0.491328,-1.14644 0.181825,0.0606 0.330589,0.38801 0.330589,0.72756 0,0.72518 -0.589161,1.02544 -0.821917,0.41888 z m 7.223207,0.20567 c -0.211384,-0.21138 0.02757,-0.62455 0.361201,-0.62455 0.136933,0 0.248968,0.17859 0.248968,0.39688 0,0.40915 -0.312198,0.52564 -0.610169,0.22767 z m 2.590713,-0.63662 c -0.220991,-0.69628 0.25788,-1.29492 0.6901,-0.8627 0.35126,0.35125 0.22486,1.18871 -0.2008,1.33043 -0.16955,0.0564 -0.389735,-0.15403 -0.4893,-0.46773 z m -4.979155,-0.95807 c -0.357584,-0.35758 -0.18415,-1.67569 0.220486,-1.67569 0.277182,0 0.396875,0.27928 0.396875,0.92604 0,0.87556 -0.221946,1.14506 -0.617361,0.74965 z m -4.797967,-2.45548 c -0.232632,-0.3764 0.06403,-0.80771 0.555551,-0.80771 0.231815,0 0.364609,0.18588 0.315113,0.44109 -0.10306,0.53141 -0.631338,0.75386 -0.870664,0.36662 z m 12.912511,-0.95779 c -0.20932,-0.54549 0.33931,-1.11509 0.71357,-0.74083 0.303,0.303 0.0744,1.15549 -0.30986,1.15549 -0.13452,0 -0.31619,-0.1866 -0.40371,-0.41466 z m -3.094654,-0.0335 c -0.35211,-0.35211 -0.172479,-1.66851 0.227675,-1.66851 0.26282,0 0.39688,0.26285 0.39688,0.77814 0,0.77668 -0.30435,1.21056 -0.624555,0.89037 z m -7.719232,-2.5284 c -0.205698,-0.53062 0.0079,-1.25678 0.369676,-1.25678 0.437657,0 0.538284,0.7303 0.169627,1.23106 -0.338744,0.46013 -0.370314,0.46163 -0.539303,0.0257 z m -1.967762,-1.64498 c -0.365752,-0.4407 -0.151548,-0.93471 0.405289,-0.93471 0.413049,0 0.530055,0.93514 0.146656,1.17209 -0.129032,0.0798 -0.377407,-0.0271 -0.551945,-0.23738 z m 4.537461,-0.58206 c 0.128733,-0.66378 0.747004,-0.75492 0.747004,-0.11012 0,0.325 -0.170839,0.55122 -0.416275,0.55122 -0.24639,0 -0.381365,-0.18002 -0.330729,-0.4411 z m -2.643552,-0.80826 c -0.302192,-0.58719 -0.124185,-1.13189 0.369895,-1.13189 0.221009,0 0.374827,0.26503 0.374827,0.64584 0,0.8207 -0.428548,1.1004 -0.744722,0.48605 z m 11.526459,-1.09179 c -0.18652,-0.71327 0.21359,-1.32144 0.60914,-0.92589 0.35599,0.35598 0.24372,1.19712 -0.17855,1.3377 -0.16337,0.0544 -0.35713,-0.13092 -0.43059,-0.41181 z m -7.553439,-3.28264 c -0.246615,-0.29754 -0.260316,-0.46598 -0.04854,-0.59686 0.391694,-0.24208 0.591913,-0.0124 0.481655,0.5526 -0.08067,0.41334 -0.123565,0.41773 -0.433112,0.0443 z m -5.674556,-0.52778 c -0.157816,-0.42914 0.04173,-0.99218 0.351639,-0.99218 0.133395,0 0.242536,0.29765 0.242536,0.66146 0,0.68991 -0.383572,0.90341 -0.594175,0.33072 z m 16.306705,-1.10771 c -0.19466,-0.50727 0.0482,-1.20739 0.41875,-1.20739 0.35156,0 0.35704,1.23968 0.006,1.45636 -0.14655,0.0906 -0.33788,-0.0215 -0.42518,-0.24897 z m -7.408331,-1.05833 c -0.20846,-0.54323 0.08514,-1.28641 0.425183,-1.07626 0.146547,0.0906 0.266449,0.38875 0.266449,0.66262 0,0.65183 -0.488188,0.94381 -0.691632,0.41364 z m -6.547503,-2.18472 c -0.340752,-0.34076 -0.168336,-1.40392 0.227679,-1.40392 0.244385,0 0.396875,0.24815 0.396875,0.64584 0,0.66389 -0.324662,1.05797 -0.624554,0.75808 z m 10.811014,-1.40392 c -0.19294,-0.31218 0.0573,-0.79375 0.41249,-0.79375 0.13693,0 0.24897,0.23812 0.24897,0.52916 0,0.55803 -0.38494,0.71201 -0.66146,0.26459 z m -7.364237,-0.97014 c -0.357584,-0.35758 -0.18415,-1.6757 0.220485,-1.6757 0.277183,0 0.396875,0.27929 0.396875,0.92605 0,0.87556 -0.221945,1.14506 -0.61736,0.74965 z m -5.888238,-1.24415 c -0.198586,-0.5175 0.07198,-0.96071 0.586491,-0.96071 0.259757,0 0.370065,0.20113 0.315113,0.57458 -0.102663,0.69772 -0.686146,0.9476 -0.901604,0.38613 z m 16.139585,-1.05833 c -0.19859,-0.51751 0.072,-0.96072 0.58649,-0.96072 0.25976,0 0.37006,0.20114 0.31511,0.57459 -0.10266,0.69771 -0.68614,0.9476 -0.9016,0.38613 z m -13.823439,-1.52656 c 0.04863,-0.34363 0.207473,-0.59502 0.352994,-0.55864 0.390573,0.0976 0.321601,0.92909 -0.08841,1.06576 -0.242003,0.0807 -0.325194,-0.0788 -0.264584,-0.50712 z m 7.099869,-0.75707 c 0,-0.52917 0.132292,-0.79375 0.396871,-0.79375 0.26459,0 0.39688,0.26458 0.39688,0.79375 0,0.52916 -0.13229,0.79375 -0.39688,0.79375 -0.264579,0 -0.396871,-0.26459 -0.396871,-0.79375 z m -9.420958,-0.15065 c -0.201851,-0.80424 0.167013,-2.133812 0.563788,-2.032162 0.379782,0.0973 0.322381,2.514202 -0.06276,2.642582 -0.176532,0.0588 -0.401997,-0.21585 -0.501028,-0.61042 z m 4.237569,-1.00715 c -0.224157,-0.58414 0.07406,-0.882362 0.478216,-0.47821 0.238628,0.23863 0.239644,0.38654 0.0043,0.62192 -0.235379,0.23538 -0.350123,0.2012 -0.482478,-0.14371 z M 91.67,100.25857 c -0.26737,-0.267372 -0.210934,-1.623122 0.07492,-1.799782 0.40286,-0.24899 0.768395,0.72225 0.519703,1.38086 -0.241025,0.638292 -0.31977,0.693772 -0.594623,0.418922 z m 4.497916,-1.058342 c -0.326461,-0.32646 -0.179927,-1.14652 0.20487,-1.14652 0.500906,0 0.718151,0.37884 0.517334,0.90216 -0.171243,0.44625 -0.432067,0.5345 -0.722204,0.24436 z m -6.949723,-1.78152 c -0.09685,-0.2524 -0.04513,-0.58987 0.114943,-0.74995 0.211667,-0.21166 0.339069,-0.16588 0.467141,0.16786 0.09685,0.2524 0.04513,0.58987 -0.114943,0.74995 -0.211667,0.21166 -0.339069,0.16589 -0.467141,-0.16786 z m 12.763357,-0.0777 c -0.31621,-0.31622 -0.17084,-0.87476 0.22768,-0.87476 0.21829,0 0.39688,0.17157 0.39688,0.38126 0,0.44203 -0.37764,0.74042 -0.62456,0.4935 z m -8.194884,-0.25739 c -0.326461,-0.32647 -0.179927,-1.14653 0.20487,-1.14653 0.500906,0 0.718151,0.37884 0.517334,0.90216 -0.171243,0.44625 -0.432067,0.5345 -0.722204,0.24437 z m 2.305402,-0.73699 c -0.182395,-0.47532 0.113255,-1.00133 0.446908,-0.79512 0.335269,0.20721 0.313354,1.17933 -0.02658,1.17933 -0.15009,0 -0.339233,-0.17289 -0.420323,-0.38421 z m 10.122822,-0.59312 c -0.31622,-0.31622 -0.17085,-0.87475 0.22768,-0.87475 0.21828,0 0.39687,0.17156 0.39687,0.38126 0,0.44202 -0.37763,0.74041 -0.62455,0.49349 z m 5.55625,46.566672 c -0.31622,-0.31622 -0.17085,-0.87475 0.22768,-0.87475 0.21828,0 0.39687,0.17156 0.39687,0.38126 0,0.44202 -0.37763,0.74041 -0.62455,0.49349 z m 1.4183,-0.34559 c 0,-0.14552 0.1786,-0.26458 0.39688,-0.26458 0.21828,0 0.39687,0.11906 0.39687,0.26458 0,0.14552 -0.17859,0.26459 -0.39687,0.26459 -0.21828,0 -0.39688,-0.11907 -0.39688,-0.26459 z m -31.22083,-1.98437 c 0,-0.65384 0.358497,-0.88708 0.646703,-0.42075 0.19123,0.30941 -0.101852,1.08221 -0.410427,1.08221 -0.129951,0 -0.236276,-0.29766 -0.236276,-0.66146 z m 31.36709,0.15489 c -0.0852,-0.13784 -0.0421,-0.32032 0.0957,-0.40551 0.13784,-0.0852 0.32032,-0.0421 0.4055,0.0957 0.0852,0.13784 0.0421,0.32032 -0.0957,0.4055 -0.13784,0.0852 -0.32032,0.0421 -0.40551,-0.0957 z m -1.73376,-1.08093 c 0,-0.14552 0.18562,-0.26459 0.41249,-0.26459 0.22687,0 0.33891,0.11907 0.24897,0.26459 -0.0899,0.14552 -0.27556,0.26458 -0.41249,0.26458 -0.13693,0 -0.24897,-0.11906 -0.24897,-0.26458 z m 0.79375,-2.64584 c 0,-0.14552 0.11906,-0.26458 0.26459,-0.26458 0.14552,0 0.26458,0.11906 0.26458,0.26458 0,0.14552 -0.11906,0.26459 -0.26458,0.26459 -0.14553,0 -0.26459,-0.11907 -0.26459,-0.26459 z m -30.691663,-0.63946 c 0,-0.44463 0.145132,-0.6835 0.415276,-0.6835 0.275786,0 0.386877,0.193 0.33073,0.57458 -0.12464,0.84707 -0.746006,0.93779 -0.746006,0.10892 z m -1.763229,-1.89191 c -0.209325,-0.5455 0.33931,-1.1151 0.713568,-0.74084 0.303001,0.303 0.07439,1.1555 -0.309866,1.1555 -0.13452,0 -0.316185,-0.1866 -0.403702,-0.41466 z m 33.645522,-0.11451 c -0.10561,-0.17088 -0.073,-0.42975 0.0726,-0.57527 0.17639,-0.17639 0.32859,-0.16102 0.4566,0.0461 0.10561,0.17088 0.073,0.42976 -0.0726,0.57528 -0.17639,0.17639 -0.32859,0.16102 -0.4566,-0.0461 z M 81.873222,133.3243 c -0.09306,-0.0931 -0.169195,-0.56608 -0.169195,-1.05115 0,-0.60756 0.123473,-0.88194 0.396875,-0.88194 0.275886,0 0.396875,0.27755 0.396875,0.91043 0,0.89038 -0.286957,1.36025 -0.624555,1.02266 z m 29.867588,-2.7162 c -0.22438,-0.36306 -0.0257,-0.63562 0.36528,-0.50122 0.16014,0.055 0.18062,0.24183 0.0496,0.45268 -0.16537,0.26617 -0.27263,0.27872 -0.41489,0.0485 z m -30.036783,-2.01706 c 0,-0.23041 0.141385,-0.3718 0.314192,-0.3142 0.490596,0.16354 0.571966,0.73312 0.10473,0.73312 -0.230407,0 -0.418922,-0.18852 -0.418922,-0.41892 z m 30.081693,-0.80841 c -0.27253,-0.27254 -0.22275,-1.15392 0.0652,-1.15392 0.13693,0 0.32197,0.11812 0.4112,0.26249 0.20441,0.33075 -0.22797,1.13985 -0.47639,0.89143 z m 1.93289,-0.36017 c 0,-0.14552 0.11906,-0.26458 0.26458,-0.26458 0.14552,0 0.26459,0.11906 0.26459,0.26458 0,0.14552 -0.11907,0.26458 -0.26459,0.26458 -0.14552,0 -0.26458,-0.11906 -0.26458,-0.26458 z m -33.760833,-0.37042 c -0.09685,-0.25239 -0.04513,-0.58987 0.114943,-0.74994 0.211666,-0.21167 0.339068,-0.16589 0.46714,0.16786 0.09685,0.2524 0.04513,0.58987 -0.114943,0.74994 -0.211667,0.21167 -0.339069,0.16589 -0.46714,-0.16786 z m 3.201458,-0.9525 c -0.192934,-0.31217 0.05733,-0.79375 0.412491,-0.79375 0.136932,0 0.248967,0.23813 0.248967,0.52917 0,0.55803 -0.384937,0.712 -0.661458,0.26458 z m 30.620005,-1.10794 c 0.16353,-0.49059 0.73312,-0.57196 0.73312,-0.10473 0,0.23041 -0.18852,0.41892 -0.41892,0.41892 -0.23041,0 -0.3718,-0.14138 -0.3142,-0.31419 z m -2.0081,-0.39855 c -0.31622,-0.31622 -0.17085,-0.87476 0.22768,-0.87476 0.21828,0 0.39687,0.17157 0.39687,0.38126 0,0.44203 -0.37763,0.74042 -0.62455,0.4935 z m -29.80253,-2.19767 c 0,-0.34102 0.133988,-0.5286 0.330729,-0.46302 0.181901,0.0606 0.330729,0.26899 0.330729,0.46302 0,0.19402 -0.148828,0.40238 -0.330729,0.46302 -0.196741,0.0656 -0.330729,-0.122 -0.330729,-0.46302 z m 0,-2.4915 c 0,-0.23041 0.188516,-0.41892 0.418923,-0.41892 0.230409,0 0.371795,0.14138 0.314192,0.31419 -0.163531,0.49059 -0.733115,0.57196 -0.733115,0.10473 z m 30.55937,-1.21267 c -0.0899,-0.14552 0.0221,-0.26459 0.24897,-0.26459 0.22687,0 0.41249,0.11907 0.41249,0.26459 0,0.14552 -0.11203,0.26458 -0.24897,0.26458 -0.13693,0 -0.32255,-0.11906 -0.41249,-0.26458 z m 1.59017,-1.3186 c -0.19514,-0.31575 0.0525,-0.79807 0.40982,-0.79807 0.32195,0 0.32404,0.71613 0.003,0.91474 -0.13547,0.0837 -0.32109,0.0312 -0.41249,-0.11667 z m -33.89579,-0.37474 c -0.09685,-0.25239 -0.04513,-0.58987 0.114943,-0.74994 0.211667,-0.21167 0.339069,-0.16589 0.46714,0.16786 0.09685,0.2524 0.04513,0.58987 -0.114943,0.74994 -0.211666,0.21167 -0.339068,0.16589 -0.46714,-0.16786 z m 1.915446,-4.04649 c -0.297969,-0.29798 -0.181475,-0.61017 0.227679,-0.61017 0.218281,0 0.396875,0.11203 0.396875,0.24896 0,0.33364 -0.413171,0.57259 -0.624554,0.36121 z m 31.580804,-2.46226 c 0,-0.14552 0.11906,-0.26458 0.26458,-0.26458 0.14552,0 0.26459,0.11906 0.26459,0.26458 0,0.14552 -0.11907,0.26459 -0.26459,0.26459 -0.14552,0 -0.26458,-0.11907 -0.26458,-0.26459 z m -1.5875,-1.5875 c 0,-0.14552 0.11906,-0.26458 0.26458,-0.26458 0.14552,0 0.26459,0.11906 0.26459,0.26458 0,0.14552 -0.11907,0.26459 -0.26459,0.26459 -0.14552,0 -0.26458,-0.11907 -0.26458,-0.26459 z m -31.967837,-0.70567 c 0.128733,-0.66378 0.747004,-0.75493 0.747004,-0.11012 0,0.32499 -0.170839,0.55121 -0.416275,0.55121 -0.24639,0 -0.381365,-0.18001 -0.330729,-0.44109 z m 33.468997,-1.25435 c -0.14887,-0.38796 0.0227,-0.68581 0.39502,-0.68581 0.29548,0 0.28243,0.72424 -0.0164,0.90891 -0.13027,0.0805 -0.30066,-0.0199 -0.37864,-0.2231 z m -0.0724,-2.37914 c -0.0969,-0.2524 -0.0451,-0.58987 0.11494,-0.74995 0.21167,-0.21166 0.33907,-0.16588 0.46714,0.16786 0.0969,0.2524 0.0451,0.58987 -0.11494,0.74995 -0.21167,0.21166 -0.33907,0.16589 -0.46714,-0.16786 z m -33.542562,-0.89899 c -0.07175,-0.11609 -0.01924,-0.38398 0.116676,-0.59531 0.216056,-0.33594 0.278196,-0.33594 0.494252,0 0.262385,0.40797 0.140285,0.80638 -0.247126,0.80638 -0.128344,0 -0.292055,-0.095 -0.363802,-0.21107 z m 2.914248,-2.08918 c -0.31622,-0.31622 -0.170844,-0.87475 0.227679,-0.87475 0.218281,0 0.396875,0.17157 0.396875,0.38126 0,0.44203 -0.377634,0.74041 -0.624554,0.49349 z m 31.222494,-2.589462 c -0.22407,-0.58391 0.0593,-1.07143 0.41559,-0.71509 0.16834,0.16834 0.17176,0.42363 0.01,0.71347 -0.23747,0.42434 -0.2629,0.42444 -0.42515,0.002 z m -34.196273,-2.09529 c -0.09685,-0.2524 -0.04513,-0.58987 0.114943,-0.74994 0.211666,-0.21167 0.339068,-0.16589 0.46714,0.16786 0.09685,0.25239 0.04513,0.58987 -0.114943,0.74994 -0.211667,0.21167 -0.339069,0.16589 -0.46714,-0.16786 z m 2.586746,-0.5696 c 0.119663,-0.5747 0.589233,-0.60987 0.696635,-0.0522 0.05577,0.28961 -0.074,0.46302 -0.346506,0.46302 -0.254193,0 -0.400042,-0.17114 -0.350129,-0.41085 z m 29.851167,-1.32456 c 0,-0.22686 0.11906,-0.3389 0.26459,-0.24896 0.14552,0.0899 0.26458,0.27555 0.26458,0.41249 0,0.13693 -0.11906,0.24896 -0.26458,0.24896 -0.14553,0 -0.26459,-0.18562 -0.26459,-0.41249 z m -32.371593,-1.03424 c -0.186595,-0.48626 0.309481,-0.8233 0.674513,-0.45827 0.282419,0.28242 0.07928,0.84667 -0.304808,0.84667 -0.121364,0 -0.287729,-0.17478 -0.369705,-0.3884 z m 32.371593,-1.58036 c 0,-0.20969 0.10659,-0.44713 0.23686,-0.52765 0.27237,-0.16833 0.60078,0.51225 0.36227,0.75075 -0.2839,0.28391 -0.59913,0.16652 -0.59913,-0.2231 z m -26.44391,-0.65013 c -0.245878,-0.45942 -0.222846,-0.59427 0.124245,-0.72746 0.683443,-0.26226 1.113859,0.35514 0.603428,0.86557 -0.391414,0.39141 -0.45026,0.38024 -0.727673,-0.13811 z m 7.311231,-0.99157 c -0.363495,-0.36349 -0.174953,-0.92492 0.28112,-0.83709 0.254661,0.049 0.463021,0.25621 0.463021,0.46038 0,0.41773 -0.466802,0.65405 -0.744141,0.37671 z m -9.273122,-0.54187 c -0.32708,-0.32708 -0.164764,-1.13933 0.227679,-1.13933 0.218282,0 0.396875,0.23109 0.396875,0.51355 0,0.55224 -0.348702,0.90163 -0.624554,0.62578 z m 4.593304,-0.61017 c 0,-0.51572 0.280636,-0.6895 0.599131,-0.37101 0.211963,0.21197 -0.06545,0.90018 -0.362855,0.90018 -0.12995,0 -0.236276,-0.23813 -0.236276,-0.52917 z m 8.995834,-0.55121 c 0,-0.6448 0.61827,-0.55366 0.747003,0.11012 0.05064,0.26108 -0.08434,0.44109 -0.330729,0.44109 -0.245436,0 -0.416274,-0.22622 -0.416274,-0.55121 z m 6.614583,0.15434 c 0,-0.24254 0.12799,-0.39831 0.28443,-0.34617 0.15643,0.0521 0.28442,0.20792 0.28442,0.34617 0,0.13824 -0.12799,0.29401 -0.28442,0.34616 -0.15644,0.0521 -0.28443,-0.10363 -0.28443,-0.34616 z m 9.89012,0.0127 c -0.18239,-0.47532 0.11326,-1.00133 0.44691,-0.79512 0.33527,0.2072 0.31336,1.17932 -0.0266,1.17932 -0.15009,0 -0.33924,-0.17289 -0.42033,-0.3842 z m -28.267361,-0.65585 c -0.195673,-0.3166 0.302053,-0.6303 0.654473,-0.41249 0.295899,0.18288 0.101645,0.65879 -0.268899,0.65879 -0.128344,0 -0.301852,-0.11083 -0.385574,-0.2463 z m 22.345991,-0.39314 c 0,-0.23041 0.18851,-0.41892 0.41892,-0.41892 0.23041,0 0.3718,0.14139 0.31419,0.31419 -0.16353,0.4906 -0.73311,0.57197 -0.73311,0.10473 z m -17.147204,-0.17418 c 0.05214,-0.15644 0.207918,-0.28443 0.346162,-0.28443 0.138245,0 0.294019,0.12799 0.346163,0.28443 0.05215,0.15643 -0.103627,0.28443 -0.346163,0.28443 -0.242535,0 -0.398309,-0.128 -0.346162,-0.28443 z m 4.094427,-0.42113 c -0.30444,-0.30444 -0.19268,-0.61736 0.220485,-0.61736 0.218282,0 0.396875,0.17859 0.396875,0.39687 0,0.41317 -0.312922,0.52493 -0.61736,0.22049 z m 11.105307,-0.27178 c -0.29797,-0.29797 -0.18148,-0.61016 0.22768,-0.61016 0.21828,0 0.39687,0.11203 0.39687,0.24896 0,0.33364 -0.41317,0.57259 -0.62455,0.3612 z m 6.33955,-1.82725 c -0.0969,-0.25239 -0.057,-0.57796 0.0885,-0.72348 0.17639,-0.17639 0.32328,-0.11162 0.44068,0.19432 0.0968,0.25239 0.057,0.57796 -0.0885,0.72348 -0.17639,0.17639 -0.32328,0.11162 -0.44068,-0.19432 z M 77.130799,140.38704 c 0.03134,-27.5762 -0.02819,-50.260572 -0.132292,-50.409722 -0.377319,-0.54061 -5.878161,-5.18427 -5.890928,-4.97296 -0.09808,1.62333 0.07791,105.279722 0.179027,105.443332 0.07739,0.12521 1.411166,0.19396 2.963957,0.15278 l 2.823255,-0.0749 z m -1.247606,48.80001 c 0,-0.22687 0.121005,-0.33771 0.268899,-0.2463 0.147894,0.0914 0.200401,0.27702 0.116676,0.41249 -0.226809,0.36699 -0.385575,0.29856 -0.385575,-0.16619 z m -2.910416,-0.39688 c 0,-0.29963 0.119062,-0.47119 0.264583,-0.38126 0.145521,0.0899 0.264583,0.33509 0.264583,0.54479 0,0.20969 -0.119062,0.38126 -0.264583,0.38126 -0.145521,0 -0.264583,-0.24516 -0.264583,-0.54479 z m 1.5875,-1.82085 c 0,-0.29963 0.119062,-0.54478 0.264583,-0.54478 0.145521,0 0.264583,0.17157 0.264583,0.38126 0,0.20969 -0.119062,0.45484 -0.264583,0.54478 -0.145521,0.0899 -0.264583,-0.0816 -0.264583,-0.38126 z m 1.322916,0.10106 c 0,-0.22687 0.121005,-0.3377 0.268899,-0.2463 0.147894,0.0914 0.200401,0.27703 0.116676,0.41249 -0.226809,0.36699 -0.385575,0.29856 -0.385575,-0.16619 z m -3.683278,-1.59393 c 0.01269,-0.30823 0.07539,-0.37092 0.159852,-0.15985 0.07643,0.19099 0.06703,0.4192 -0.02089,0.50712 -0.08792,0.0879 -0.150453,-0.0684 -0.138964,-0.34727 z m 2.364413,-1.21911 c 0.0022,-0.48153 0.119468,-1.0541 0.260532,-1.27238 0.188143,-0.29114 0.25756,-0.10143 0.260532,0.71198 0.0022,0.60988 -0.115011,1.18245 -0.260532,1.27239 -0.156282,0.0966 -0.262925,-0.19485 -0.260532,-0.71199 z m -2.649885,-1.53697 c 0,-0.58208 0.119063,-1.05833 0.264584,-1.05833 0.14552,0 0.264583,0.47625 0.264583,1.05833 0,0.58209 -0.119063,1.05834 -0.264583,1.05834 -0.145521,0 -0.264584,-0.47625 -0.264584,-1.05834 z m 1.648884,-1.32291 c 0,-0.50933 0.05445,-0.71769 0.121001,-0.46302 0.06655,0.25466 0.06655,0.67138 0,0.92604 -0.06655,0.25466 -0.121001,0.0463 -0.121001,-0.46302 z m 2.43791,-0.55222 c -0.09777,-0.15821 -0.04527,-0.42014 0.116676,-0.58209 0.216207,-0.2162 0.294447,-0.13977 0.294447,0.28764 0,0.63884 -0.13744,0.73727 -0.411123,0.29445 z m -4.068197,-0.70455 c 0.01023,-0.10915 0.120922,-0.43657 0.245987,-0.72761 0.201496,-0.46891 0.229508,-0.44631 0.245987,0.19844 0.01023,0.40018 -0.100467,0.7276 -0.245987,0.7276 -0.145521,0 -0.256215,-0.0893 -0.245987,-0.19843 z m 1.568903,-2.99218 c 0,-0.29963 0.119063,-0.4712 0.264584,-0.38126 0.145521,0.0899 0.264583,0.33509 0.264583,0.54478 0,0.20969 -0.119062,0.38126 -0.264583,0.38126 -0.145521,0 -0.264584,-0.24515 -0.264584,-0.54478 z m 1.058334,-2.36564 c 0,-0.14552 0.119062,-0.26458 0.264583,-0.26458 0.145521,0 0.264583,0.11906 0.264583,0.26458 0,0.14552 -0.119062,0.26459 -0.264583,0.26459 -0.145521,0 -0.264583,-0.11907 -0.264583,-0.26459 z m 0.07929,-3.175 c 0,-0.80036 0.0496,-1.12778 0.110223,-0.7276 0.06062,0.40018 0.06062,1.05503 0,1.45521 -0.06062,0.40018 -0.110223,0.0728 -0.110223,-0.72761 z m -1.360427,0.26459 c 0,-0.36381 0.06005,-0.51263 0.133453,-0.33073 0.0734,0.1819 0.0734,0.47955 0,0.66146 -0.0734,0.1819 -0.133453,0.0331 -0.133453,-0.33073 z m -1.322916,-1.85209 c 0,-0.3638 0.06005,-0.51263 0.133452,-0.33073 0.0734,0.18191 0.0734,0.47956 0,0.66146 -0.0734,0.1819 -0.133452,0.0331 -0.133452,-0.33073 z m 1.28114,-1.32291 c 0,-0.659 0.104555,-1.02495 0.264583,-0.92604 0.145521,0.0899 0.264584,0.50665 0.264584,0.92604 0,0.41938 -0.119063,0.8361 -0.264584,0.92604 -0.160028,0.0989 -0.264583,-0.26704 -0.264583,-0.92604 z m 1.176377,-0.28764 c -0.09777,-0.1582 -0.04527,-0.42014 0.116677,-0.58208 0.216206,-0.21621 0.294446,-0.13978 0.294446,0.28763 0,0.63884 -0.13744,0.73728 -0.411123,0.29445 z m -1.114993,-2.3582 c 0,-0.50932 0.05445,-0.71768 0.121,-0.46302 0.06655,0.25466 0.06655,0.67138 0,0.92604 -0.06655,0.25467 -0.121,0.0463 -0.121,-0.46302 z m 1.809297,-1.38906 c 0.01024,-0.1819 0.12092,-0.56885 0.245986,-0.85989 0.190555,-0.44345 0.230404,-0.38988 0.245985,0.33072 0.01024,0.47295 -0.100465,0.8599 -0.245985,0.8599 -0.145521,0 -0.256215,-0.14883 -0.245986,-0.33073 z m -1.341514,-2.96095 c 0,-0.37239 0.119062,-0.67707 0.264583,-0.67707 0.145521,0 0.264583,0.2311 0.264583,0.51355 0,0.28246 -0.119062,0.58714 -0.264583,0.67708 -0.150061,0.0927 -0.264583,-0.12955 -0.264583,-0.51356 z m 1.322916,-2.39686 c 0,-0.21828 0.119063,-0.39688 0.264584,-0.39688 0.14552,0 0.264583,0.1786 0.264583,0.39688 0,0.21828 -0.119063,0.39687 -0.264583,0.39687 -0.145521,0 -0.264584,-0.17859 -0.264584,-0.39687 z M 72.179031,158.511 c 0,-0.21828 0.119062,-0.39688 0.264583,-0.39688 0.145521,0 0.264583,0.1786 0.264583,0.39688 0,0.21828 -0.119062,0.39687 -0.264583,0.39687 -0.145521,0 -0.264583,-0.17859 -0.264583,-0.39687 z m 0,-2.38125 c 0,-0.21828 0.119062,-0.39688 0.264583,-0.39688 0.145521,0 0.264583,0.1786 0.264583,0.39688 0,0.21828 -0.119062,0.39687 -0.264583,0.39687 -0.145521,0 -0.264583,-0.17859 -0.264583,-0.39687 z m 2.116666,-0.24897 c 0,-0.22687 0.119063,-0.41249 0.264584,-0.41249 0.145521,0 0.264583,0.11204 0.264583,0.24897 0,0.13693 -0.119062,0.32255 -0.264583,0.41249 -0.145521,0.0899 -0.264584,-0.0221 -0.264584,-0.24897 z m -0.979047,-3.85207 c 0,-0.80037 0.0496,-1.12779 0.110223,-0.72761 0.06062,0.40019 0.06062,1.05503 0,1.45521 -0.06062,0.40018 -0.110223,0.0728 -0.110223,-0.7276 z m 0.979047,-2.11667 c 0,-0.29104 0.119063,-0.52916 0.264584,-0.52916 0.145521,0 0.264583,0.23812 0.264583,0.52916 0,0.29104 -0.119062,0.52917 -0.264583,0.52917 -0.145521,0 -0.264584,-0.23813 -0.264584,-0.52917 z m 1.322917,-0.79375 c 0,-0.58208 0.119063,-1.05833 0.264583,-1.05833 0.145521,0 0.264584,0.47625 0.264584,1.05833 0,0.58209 -0.119063,1.05834 -0.264584,1.05834 -0.14552,0 -0.264583,-0.47625 -0.264583,-1.05834 z m -2.38125,-0.39687 c 0,-0.21828 0.119062,-0.39688 0.264583,-0.39688 0.145521,0 0.264584,0.1786 0.264584,0.39688 0,0.21828 -0.119063,0.39687 -0.264584,0.39687 -0.145521,0 -0.264583,-0.17859 -0.264583,-0.39687 z m 1.058333,-1.57189 c 0,-0.20969 0.119063,-0.45484 0.264584,-0.54478 0.145521,-0.0899 0.264583,0.0816 0.264583,0.38126 0,0.29963 -0.119062,0.54478 -0.264583,0.54478 -0.145521,0 -0.264584,-0.17156 -0.264584,-0.38126 z m -2.38125,-2.1479 c 0,-0.22686 0.121005,-0.3377 0.2689,-0.2463 0.147894,0.0914 0.200399,0.27703 0.116676,0.41249 -0.226811,0.36699 -0.385576,0.29856 -0.385576,-0.16619 z m 1.322917,-1.57188 c 0,-0.21828 0.119062,-0.39687 0.264583,-0.39687 0.145521,0 0.264584,0.17859 0.264584,0.39687 0,0.21828 -0.119063,0.39688 -0.264584,0.39688 -0.145521,0 -0.264583,-0.1786 -0.264583,-0.39688 z m -1.322917,-1.19062 c 0,-0.43657 0.119063,-0.79375 0.264584,-0.79375 0.14552,0 0.264583,0.35718 0.264583,0.79375 0,0.43656 -0.119063,0.79375 -0.264583,0.79375 -0.145521,0 -0.264584,-0.35719 -0.264584,-0.79375 z m 3.481359,-2.11667 c 0,-0.3638 0.06005,-0.51263 0.133453,-0.33073 0.0734,0.1819 0.0734,0.47956 0,0.66146 -0.0734,0.1819 -0.133453,0.0331 -0.133453,-0.33073 z m -3.481359,-0.51355 c 0,-0.29963 0.119063,-0.54478 0.264584,-0.54478 0.14552,0 0.264583,0.17156 0.264583,0.38126 0,0.20969 -0.119063,0.45484 -0.264583,0.54478 -0.145521,0.0899 -0.264584,-0.0816 -0.264584,-0.38126 z m 1.222888,-3.67358 c -0.117079,-0.33839 -0.142468,-0.68565 -0.05642,-0.7717 0.27427,-0.27427 0.467055,0.13015 0.366541,0.76892 l -0.09725,0.61803 z m 1.507632,-2.95662 c 0,-0.94589 0.04802,-1.33284 0.106712,-0.8599 0.05869,0.47295 0.05869,1.24685 0,1.7198 -0.05869,0.47294 -0.106712,0.086 -0.106712,-0.8599 z m 1.299614,0.79375 c 0,-0.50932 0.05445,-0.71768 0.121002,-0.46302 0.06655,0.25466 0.06655,0.67138 0,0.92604 -0.06655,0.25466 -0.121002,0.0463 -0.121002,-0.46302 z m -4.022088,-1.97115 c -0.0059,-0.5692 0.07101,-0.70146 0.283955,-0.48852 0.209271,0.20927 0.21155,0.43041 0.008,0.78052 -0.248929,0.42827 -0.284947,0.39225 -0.292,-0.292 z m 4.010023,-1.46843 c 0.0034,-1.5214 0.02987,-1.60989 0.22951,-0.76706 0.125767,0.53095 0.124068,1.29232 -0.0038,1.71979 -0.184245,0.61577 -0.228753,0.42786 -0.225676,-0.95273 z m -2.653376,-1.05834 c 0,-0.3638 0.06005,-0.51263 0.133453,-0.33073 0.0734,0.18191 0.0734,0.47956 0,0.66146 -0.0734,0.1819 -0.133453,0.0331 -0.133453,-0.33073 z m -1.221102,-1.04005 c -0.08372,-0.13546 -0.03122,-0.32108 0.116677,-0.41249 0.147894,-0.0914 0.268899,0.0194 0.268899,0.2463 0,0.46475 -0.158765,0.53318 -0.385576,0.16619 z m 1.24071,-1.60578 c 0,-0.50932 0.05445,-0.71768 0.121,-0.46302 0.06655,0.25466 0.06655,0.67138 0,0.92604 -0.06655,0.25466 -0.121,0.0463 -0.121,-0.46302 z m 2.605338,0.11024 c 0.0127,-0.30822 0.07539,-0.37092 0.159851,-0.15985 0.07643,0.191 0.06703,0.4192 -0.02088,0.50712 -0.08792,0.0879 -0.150452,-0.0683 -0.138964,-0.34727 z m 0,-4.49791 c 0.0127,-0.30823 0.07539,-0.37092 0.159851,-0.15986 0.07643,0.191 0.06703,0.4192 -0.02088,0.50712 -0.08792,0.0879 -0.150452,-0.0683 -0.138964,-0.34726 z m -3.989639,-1.03629 c 0,-0.3638 0.119063,-0.66146 0.264584,-0.66146 0.14552,0 0.264583,0.29766 0.264583,0.66146 0,0.3638 -0.119063,0.66146 -0.264583,0.66146 -0.145521,0 -0.264584,-0.29766 -0.264584,-0.66146 z m 1.608388,-1.60955 c 0.0127,-0.30823 0.07539,-0.37092 0.159853,-0.15985 0.07643,0.19099 0.06703,0.41919 -0.02089,0.50712 -0.08792,0.0879 -0.150453,-0.0684 -0.138963,-0.34727 z m -1.431999,-0.55122 c -0.279054,-0.27905 -0.205022,-2.6851 0.08819,-2.86632 0.165269,-0.10214 0.264583,0.43823 0.264583,1.4396 0,1.61712 -0.03219,1.74731 -0.352778,1.42672 z m 1.490397,-2.20486 c 0,-0.80036 0.0496,-1.12778 0.110223,-0.7276 0.06062,0.40018 0.06062,1.05502 0,1.45521 -0.06062,0.40018 -0.110223,0.0728 -0.110223,-0.72761 z m 1.264519,0.904 c 0.01269,-0.30823 0.07539,-0.37092 0.159853,-0.15986 0.07643,0.191 0.06703,0.4192 -0.02089,0.50712 -0.08792,0.0879 -0.150453,-0.0683 -0.138965,-0.34726 z m -0.196616,-5.02282 c -0.08751,-0.22807 -0.02425,-0.54954 0.140596,-0.71438 0.223232,-0.22323 0.299715,-0.11741 0.299715,0.41466 0,0.79605 -0.198103,0.9309 -0.440311,0.29972 z m -1.27122,-0.98582 c -0.113259,-0.26093 -0.131684,-0.54867 -0.04095,-0.63941 0.268683,-0.26868 0.485269,0.10873 0.361605,0.63012 -0.10963,0.46221 -0.123894,0.46262 -0.320658,0.009 z m 1.513671,-2.1714 c 0.0029,-0.58208 0.05712,-0.78905 0.120406,-0.45993 0.06329,0.32911 0.06088,0.80536 -0.0053,1.05833 -0.06622,0.25296 -0.118003,-0.0163 -0.115067,-0.5984 z m 0.99161,-3.42397 c 0,-0.37239 0.119063,-0.67707 0.264584,-0.67707 0.14552,0 0.264583,0.2311 0.264583,0.51355 0,0.28245 -0.119063,0.58714 -0.264583,0.67708 -0.150061,0.0927 -0.264584,-0.12955 -0.264584,-0.51356 z m -3.439583,-0.80936 c 0,-0.21828 0.119063,-0.39688 0.264583,-0.39688 0.145521,0 0.264584,0.1786 0.264584,0.39688 0,0.21828 -0.119063,0.39687 -0.264584,0.39687 -0.14552,0 -0.264583,-0.17859 -0.264583,-0.39687 z m 2.38125,-0.13229 c 0,-0.14552 0.126089,-0.26459 0.280199,-0.26459 0.154109,0 0.206613,0.11907 0.116676,0.26459 -0.08994,0.14552 -0.216026,0.26458 -0.280198,0.26458 -0.06417,0 -0.116677,-0.11906 -0.116677,-0.26458 z m 1.058333,-1.45521 c 0,-0.21828 0.119063,-0.39688 0.264584,-0.39688 0.14552,0 0.264583,0.1786 0.264583,0.39688 0,0.21828 -0.119063,0.39687 -0.264583,0.39687 -0.145521,0 -0.264584,-0.17859 -0.264584,-0.39687 z m -3.439583,-0.79375 c 0,-0.21828 0.119063,-0.39688 0.264583,-0.39688 0.145521,0 0.264584,0.1786 0.264584,0.39688 0,0.21828 -0.119063,0.39687 -0.264584,0.39687 -0.14552,0 -0.264583,-0.17859 -0.264583,-0.39687 z m 1.629276,-1.19063 c 0,-0.3638 0.06005,-0.51263 0.133453,-0.33072 0.0734,0.1819 0.0734,0.47955 0,0.66145 -0.0734,0.1819 -0.133453,0.0331 -0.133453,-0.33073 z m 1.322916,-2.645832 c 0,-0.3638 0.06005,-0.51263 0.133453,-0.33073 0.0734,0.1819 0.0734,0.47956 0,0.66146 -0.0734,0.1819 -0.133453,0.0331 -0.133453,-0.33073 z m -2.116666,-2.11667 c 0,-0.3638 0.06005,-0.51263 0.133453,-0.33072 0.0734,0.1819 0.0734,0.47955 0,0.66145 -0.0734,0.1819 -0.133453,0.0331 -0.133453,-0.33073 z m -1.364693,-1.7354 c 0,-0.22687 0.119063,-0.33891 0.264584,-0.24897 0.14552,0.0899 0.264583,0.27556 0.264583,0.41249 0,0.13693 -0.119063,0.24897 -0.264583,0.24897 -0.145521,0 -0.264584,-0.18562 -0.264584,-0.41249 z m 1.295929,-0.38126 c -0.07375,-0.3638 -0.06136,-0.95912 0.02754,-1.32292 0.14509,-0.59379 0.174975,-0.60732 0.292117,-0.13229 0.07177,0.29104 0.05938,0.88635 -0.02754,1.32292 -0.154628,0.77666 -0.160915,0.77951 -0.292117,0.13229 z m -1.295929,-2.79374 c 0,-0.73679 0.102973,-1.1426 0.264584,-1.04272 0.14552,0.0899 0.264583,0.63274 0.264583,1.20624 0,0.57349 -0.119063,1.04272 -0.264583,1.04272 -0.145521,0 -0.264584,-0.54281 -0.264584,-1.20624 z m 2.931305,0.25815 c 0.01269,-0.30823 0.07539,-0.37092 0.159853,-0.15985 0.07643,0.19099 0.06703,0.41919 -0.02089,0.50711 -0.08792,0.0879 -0.150453,-0.0683 -0.138965,-0.34726 z m -1.439485,-1.83004 c -0.08376,-0.21828 -0.03697,-0.39687 0.103984,-0.39687 0.140954,0 0.25628,0.17859 0.25628,0.39687 0,0.21828 -0.04679,0.39688 -0.103984,0.39688 -0.05719,0 -0.172518,-0.1786 -0.25628,-0.39688 z m 1.418597,-0.13229 c 0,-0.49389 0.07056,-0.56444 0.3175,-0.3175 0.246944,0.24695 0.246944,0.38806 0,0.635 -0.246944,0.24695 -0.3175,0.17639 -0.3175,-0.3175 z m -2.86864,-1.5875 c 0,-0.3638 0.06005,-0.51263 0.133452,-0.33073 0.0734,0.1819 0.0734,0.47956 0,0.66146 -0.0734,0.1819 -0.133452,0.0331 -0.133452,-0.33073 z m 62.664466,77.909492 v -23.69051 l -2.3151,0.0765 -2.31511,0.0764 -0.11824,1.5875 -0.11824,1.5875 -0.14634,-1.5875 c -0.10783,-1.16968 -0.2508,-1.5875 -0.54322,-1.5875 -0.34931,0 -0.40497,2.8302 -0.46444,23.61406 l -0.0676,23.61406 h 3.04413 3.04413 z m -4.49791,21.57384 c 0,-0.43656 0.11906,-0.79375 0.26458,-0.79375 0.14552,0 0.26458,0.35719 0.26458,0.79375 0,0.43656 -0.11906,0.79375 -0.26458,0.79375 -0.14552,0 -0.26458,-0.35719 -0.26458,-0.79375 z m 2.93679,-0.7276 c 0.0447,-2.58049 0.44649,-3.13829 0.47642,-0.66146 0.0157,1.2964 -0.0811,2.18281 -0.23821,2.18281 -0.14877,0 -0.25304,-0.66592 -0.23821,-1.52135 z m -1.61388,0.33073 c 0,-0.21828 0.11906,-0.39688 0.26459,-0.39688 0.14552,0 0.26458,0.1786 0.26458,0.39688 0,0.21828 -0.11906,0.39687 -0.26458,0.39687 -0.14553,0 -0.26459,-0.17859 -0.26459,-0.39687 z m 0.31617,-2.11667 c 0.005,-0.43656 0.0647,-0.58312 0.13177,-0.32569 0.0671,0.25743 0.0627,0.61462 -0.01,0.79375 -0.0725,0.17913 -0.12736,-0.0315 -0.12197,-0.46806 z m -1.90367,-3.02709 c 0,-0.59067 0.11906,-1.07395 0.26459,-1.07395 0.14552,0 0.26458,0.40969 0.26458,0.91043 0,0.50073 -0.11906,0.98401 -0.26458,1.07394 -0.15979,0.0988 -0.26459,-0.26183 -0.26459,-0.91042 z m 3.175,-0.2802 c 0,-0.29104 0.11906,-0.52917 0.26459,-0.52917 0.14552,0 0.26458,0.23813 0.26458,0.52917 0,0.29104 -0.11906,0.52917 -0.26458,0.52917 -0.14553,0 -0.26459,-0.23813 -0.26459,-0.52917 z m -0.90409,-3.13949 c -0.11398,-0.18442 -0.13578,-0.40675 -0.0484,-0.49409 0.23679,-0.23679 0.49497,0.11147 0.36708,0.49516 -0.0896,0.26886 -0.15195,0.26865 -0.31864,-0.001 z m -0.15424,-4.38552 c 0,-0.20969 0.11906,-0.45484 0.26458,-0.54478 0.14552,-0.0899 0.26459,0.0816 0.26459,0.38126 0,0.29963 -0.11907,0.54478 -0.26459,0.54478 -0.14552,0 -0.26458,-0.17157 -0.26458,-0.38126 z m -2.02781,-0.29798 c -0.0875,-0.22807 -0.0242,-0.54954 0.14059,-0.71438 0.22324,-0.22323 0.29972,-0.11741 0.29972,0.41466 0,0.79605 -0.19811,0.9309 -0.44031,0.29972 z m 3.49566,-1.76816 c -0.11085,-0.25466 -0.11085,-0.67138 0,-0.92604 0.19194,-0.44097 0.20682,-0.44097 0.31229,0 0.0609,0.25466 0.0609,0.67138 0,0.92604 -0.10547,0.44098 -0.12035,0.44098 -0.31229,0 z m -1.4638,-1.32291 c 0.003,-0.82351 0.0727,-1.01825 0.26053,-0.72761 0.33761,0.52242 0.33761,1.85209 0,1.85209 -0.14552,0 -0.26276,-0.50602 -0.26053,-1.12448 z m 1.36272,-3.10886 c 0.009,-1.31686 0.0306,-1.36933 0.22326,-0.55198 0.11712,0.49678 0.11248,1.15162 -0.0103,1.45521 -0.15997,0.39551 -0.22033,0.13947 -0.21294,-0.90323 z m -2.60083,-0.67924 c -0.0875,-0.22806 -0.0242,-0.54953 0.14059,-0.71437 0.22324,-0.22324 0.29972,-0.11742 0.29972,0.41466 0,0.79605 -0.19811,0.93089 -0.44031,0.29971 z m 2.60856,-3.15721 c 0.005,-0.43657 0.0647,-0.58313 0.13177,-0.3257 0.0671,0.25743 0.0627,0.61462 -0.01,0.79375 -0.0725,0.17913 -0.12736,-0.0315 -0.12197,-0.46805 z m -2.52526,0.008 c -0.082,-0.21362 -0.0352,-0.45877 0.10398,-0.54478 0.13917,-0.086 0.25303,0.0888 0.25303,0.3884 0,0.63886 -0.14714,0.70331 -0.35701,0.15638 z m -1.31868,-2.6984 c -0.27813,-0.27811 -0.20551,-2.42021 0.0882,-2.60173 0.16427,-0.10152 0.26458,0.39413 0.26458,1.3073 0,1.48692 -0.0343,1.61288 -0.35277,1.29443 z m 3.26319,-1.2632 c 0,-0.37239 0.11906,-0.67707 0.26458,-0.67707 0.14552,0 0.26459,0.2311 0.26459,0.51355 0,0.28245 -0.11907,0.58714 -0.26459,0.67707 -0.15006,0.0927 -0.26458,-0.12954 -0.26458,-0.51355 z m -3.26743,-3.18214 c -0.082,-0.21362 -0.0352,-0.45877 0.10398,-0.54478 0.13917,-0.086 0.25303,0.0888 0.25303,0.3884 0,0.63885 -0.14714,0.7033 -0.35701,0.15638 z m 1.15076,-0.53764 c 0,-0.50932 0.11906,-0.92604 0.26459,-0.92604 0.14552,0 0.26458,0.41672 0.26458,0.92604 0,0.50932 -0.11906,0.92604 -0.26458,0.92604 -0.14553,0 -0.26459,-0.41672 -0.26459,-0.92604 z m 1.62928,-1.98438 c 0,-0.3638 0.06,-0.51263 0.13345,-0.33072 0.0734,0.1819 0.0734,0.47955 0,0.66145 -0.0734,0.1819 -0.13345,0.0331 -0.13345,-0.33073 z m -1.62928,-0.66145 c 0,-0.21828 0.11906,-0.39688 0.26459,-0.39688 0.14552,0 0.26458,0.1786 0.26458,0.39688 0,0.21828 -0.11906,0.39687 -0.26458,0.39687 -0.14553,0 -0.26459,-0.17859 -0.26459,-0.39687 z m 1.36469,-4.63021 c 0,-0.3638 0.0601,-0.51263 0.13346,-0.33073 0.0734,0.1819 0.0734,0.47956 0,0.66146 -0.0734,0.1819 -0.13346,0.0331 -0.13346,-0.33073 z m -2.54705,-1.13589 c -0.11326,-0.26094 -0.13169,-0.54867 -0.0409,-0.63941 0.26868,-0.26868 0.48527,0.10873 0.36161,0.63011 -0.10963,0.46221 -0.1239,0.46263 -0.32066,0.009 z m 3.8282,-0.98078 c 0,-0.14552 0.11906,-0.26458 0.26458,-0.26458 0.14552,0 0.26458,0.11906 0.26458,0.26458 0,0.14552 -0.11906,0.26459 -0.26458,0.26459 -0.14552,0 -0.26458,-0.11907 -0.26458,-0.26459 z m 0,-2.51354 c 0,-0.21828 0.11906,-0.39687 0.26458,-0.39687 0.14552,0 0.26458,0.17859 0.26458,0.39687 0,0.21828 -0.11906,0.39688 -0.26458,0.39688 -0.14552,0 -0.26458,-0.1786 -0.26458,-0.39688 z m -55.033337,27.14143 c 0,-2.90796 -0.122369,-3.72581 -0.557474,-3.72581 -0.270642,0 -0.328036,6.17005 -0.05989,6.4382 0.490286,0.49029 0.61736,-0.068 0.61736,-2.71239 z m 58.170767,-31.50677 c 2.13619,-0.75853 5.2497,-2.83283 6.4467,-4.29494 2.03482,-2.48551 3.19318,-5.77717 3.19443,-9.07748 0.001,-3.6059 -0.32755,-4.2355 -5.60473,-10.72819 -2.95067,-3.63032 -3.99883,-5.81057 -3.99883,-8.31787 0,-1.49346 0.14136,-2.15742 0.69652,-3.27148 1.23495,-2.47823 4.30874,-4.17487 7.13842,-3.94021 1.70355,0.14127 2.6188,0.85977 3.0272,2.37647 0.36987,1.37358 0.0991,2.67359 -0.96894,4.65262 -1.04941,1.94447 -1.09455,2.31415 -0.33241,2.72203 0.45531,0.24368 0.80191,0.19543 1.78593,-0.24863 0.67154,-0.30304 1.93536,-0.82916 2.80848,-1.16914 1.03459,-0.40285 1.70134,-0.84289 1.91433,-1.26341 0.40813,-0.80578 0.39826,-3.80308 -0.0162,-4.9273 -1.62281,-4.401592 -7.38858,-6.885792 -12.75657,-5.496212 -3.57839,0.92632 -5.92078,2.753742 -7.38841,5.764092 -1.17088,2.40167 -1.56127,4.77412 -1.20219,7.30591 0.36567,2.57835 1.20536,4.50012 3.39398,7.7677 2.45814,3.66997 2.92133,4.62413 3.18669,6.56452 0.14499,1.06022 0.37401,1.71061 0.65839,1.86975 0.66163,0.37027 0.52141,0.68984 -0.23891,0.54449 -0.98652,-0.18858 -2.06038,0.87931 -1.86527,1.85489 0.14161,0.70805 -0.17245,0.99817 -0.50247,0.46419 -0.22395,-0.36236 -1.11657,-0.33388 -1.34953,0.043 -0.10457,0.1692 -0.278,0.67521 -0.3854,1.12448 l -0.19528,0.81684 -0.0271,-0.75844 c -0.0235,-0.65857 -0.11298,-0.74203 -0.67931,-0.63377 -0.35873,0.0686 -0.70685,-0.007 -0.77361,-0.16759 -0.18595,-0.44776 -0.65967,0.36054 -0.83664,1.42751 -0.0845,0.50933 -0.26671,1.16417 -0.40498,1.45521 -0.17865,0.37605 -0.1985,0.22292 -0.0686,-0.52917 0.10054,-0.58208 0.19174,-1.41552 0.20265,-1.85208 0.0276,-1.10613 -0.6543,-1.03317 -1.23652,0.13229 -0.49131,0.98349 -0.63294,0.74488 -0.21319,-0.35915 0.19,-0.49974 0.15085,-0.74067 -0.16262,-1.00083 -0.34746,-0.28838 -0.4914,-0.24564 -0.90878,0.26979 -0.27275,0.33684 -0.63514,1.07712 -0.8053,1.64507 -0.17016,0.56794 -0.40129,1.03262 -0.51362,1.03262 -0.26023,0 0.0899,-1.23078 0.66849,-2.34956 0.34908,-0.67505 0.37807,-0.9459 0.1329,-1.24132 -0.47824,-0.57624 -0.70695,-0.47133 -1.57007,0.72016 -0.91956,1.26943 -1.01679,1.16693 -0.27407,-0.28892 0.45508,-0.89204 0.47189,-1.06293 0.13229,-1.34477 -0.51651,-0.42867 -0.89018,-0.10516 -2.00697,1.73754 -0.48132,0.79418 -0.97875,1.44396 -1.10539,1.44396 -0.2231,0 0.43158,-1.21068 1.4716,-2.72137 0.95134,-1.38189 -0.14617,-2.3107 -1.35824,-1.14946 -0.99631,0.95452 -1.66591,0.91305 -0.74684,-0.0463 0.90811,-0.94786 0.89512,-1.42645 -0.0677,-2.49488 -0.64692,-0.71788 -0.85955,-0.81445 -1.25677,-0.57079 -0.44034,0.27012 -0.48364,0.89091 -0.54828,7.85988 -0.08,8.62274 -0.36,7.70052 2.58372,8.5093 2.74449,0.75404 4.14415,0.90031 7.80521,0.81569 2.7546,-0.0637 3.7746,-0.19845 5.12181,-0.67683 z m -3.22304,-0.3709 c -0.0857,-0.2234 -0.0502,-0.47147 0.0789,-0.55127 0.34596,-0.21381 0.6393,0.39515 0.3363,0.69814 -0.16936,0.16936 -0.31338,0.11842 -0.41518,-0.14687 z m -5.99981,-0.39191 c 0,-0.29104 0.11906,-0.60275 0.26458,-0.69268 0.14552,-0.0899 0.26459,0.0746 0.26459,0.36564 0,0.29105 -0.11907,0.60275 -0.26459,0.69269 -0.14552,0.0899 -0.26458,-0.0746 -0.26458,-0.36565 z m 1.47025,-0.0974 c 0.22317,-0.72604 0.33482,-0.86281 0.53828,-0.65935 0.22802,0.22801 -0.14568,1.25466 -0.45669,1.25466 -0.15221,0 -0.18687,-0.25283 -0.0816,-0.59531 z m 1.44017,0.34634 c 0,-0.13693 0.11906,-0.32255 0.26458,-0.41249 0.14552,-0.0899 0.26458,0.0221 0.26458,0.24897 0,0.22687 -0.11906,0.41249 -0.26458,0.41249 -0.14552,0 -0.26458,-0.11203 -0.26458,-0.24897 z m 1.5875,-0.82498 c 0,-0.64859 0.10479,-1.00918 0.26458,-0.91042 0.14552,0.0899 0.26458,0.57321 0.26458,1.07395 0,0.50073 -0.11906,0.91042 -0.26458,0.91042 -0.14552,0 -0.26458,-0.48327 -0.26458,-1.07395 z m -7.21201,0.64839 c -0.15674,-0.2536 0.46723,-1.95569 0.71694,-1.95569 0.0798,0 0.14507,0.2749 0.14507,0.61089 0,0.70429 -0.64041,1.70337 -0.86201,1.3448 z m 1.53032,-0.69892 c 0.21615,-1.02585 0.65625,-1.59823 0.65099,-0.84666 -0.006,0.83091 -0.30211,1.70656 -0.57744,1.70656 -0.14818,0 -0.17895,-0.3597 -0.0736,-0.8599 z m 8.5921,-0.21405 c 0,-0.4722 0.11022,-0.74125 0.26459,-0.64584 0.14552,0.0899 0.26458,0.45415 0.26458,0.80936 0,0.35522 -0.11906,0.64585 -0.26458,0.64585 -0.14553,0 -0.26459,-0.36422 -0.26459,-0.80937 z m -11.64166,0.2802 c 0,-0.14552 0.11906,-0.26458 0.26458,-0.26458 0.14552,0 0.26458,0.11906 0.26458,0.26458 0,0.14552 -0.11906,0.26458 -0.26458,0.26458 -0.14552,0 -0.26458,-0.11906 -0.26458,-0.26458 z m 13.1525,-0.52917 c -0.0761,-0.29104 -0.0305,-0.52916 0.10143,-0.52916 0.1319,0 0.23982,0.0498 0.23982,0.11065 0,0.0609 0.0723,0.29898 0.1606,0.52916 0.0883,0.23019 0.0427,0.41852 -0.10144,0.41852 -0.14412,0 -0.3243,-0.23813 -0.40041,-0.52917 z m -14.21084,0.015 c 0,-0.46001 0.51069,-1.33791 0.77829,-1.33791 0.32804,0 0.0289,0.98234 -0.41,1.34664 -0.27952,0.23198 -0.36829,0.22987 -0.36829,-0.009 z m 11.28889,-0.19139 c -0.27447,-0.27447 -0.20739,-1.14652 0.0882,-1.14652 0.14552,0 0.26458,0.29765 0.26458,0.66145 0,0.6927 -0.0611,0.77673 -0.35278,0.48507 z m 4.3094,-0.37544 c -0.34039,-0.63602 -0.0828,-1.08366 0.28705,-0.49884 0.25957,0.41044 0.33956,1.05067 0.13126,1.05067 -0.0676,0 -0.25588,-0.24832 -0.41831,-0.55183 z m -7.13162,-0.25753 c 0,-0.29963 0.11906,-0.4712 0.26458,-0.38126 0.14552,0.0899 0.26459,0.33509 0.26459,0.54478 0,0.20969 -0.11907,0.38126 -0.26459,0.38126 -0.14552,0 -0.26458,-0.24515 -0.26458,-0.54478 z m -6.61458,-0.21774 c 0,-0.29104 0.11906,-0.60275 0.26458,-0.69269 0.14552,-0.0899 0.26458,0.0746 0.26458,0.36565 0,0.29104 -0.11906,0.60275 -0.26458,0.69268 -0.14552,0.0899 -0.26458,-0.0746 -0.26458,-0.36564 z m 14.67149,-0.68224 c -0.64697,-1.20135 -0.30677,-1.5213 0.39451,-0.37102 0.5879,0.96432 0.66844,1.28661 0.32149,1.28661 -0.1226,0 -0.4448,-0.41202 -0.716,-0.91559 z m -6.73399,0.38643 c 0,-0.14552 0.12609,-0.26459 0.28019,-0.26459 0.15411,0 0.20662,0.11907 0.11668,0.26459 -0.0899,0.14552 -0.21603,0.26458 -0.2802,0.26458 -0.0642,0 -0.11667,-0.11906 -0.11667,-0.26458 z m -6.35,-0.23336 c 0,-0.14552 0.11906,-0.33817 0.26458,-0.4281 0.14552,-0.0899 0.26458,-0.0445 0.26458,0.10106 0,0.14552 -0.11906,0.33817 -0.26458,0.4281 -0.14552,0.0899 -0.26458,0.0445 -0.26458,-0.10106 z m 14.74501,-0.19108 c -0.10612,-0.10611 -0.19293,-0.37549 -0.19293,-0.59862 0,-0.29781 0.0783,-0.32742 0.29435,-0.11134 0.16189,0.16189 0.24871,0.43127 0.19292,0.59861 -0.0558,0.16735 -0.18824,0.21746 -0.29434,0.11135 z m -18.71376,-0.48599 c 0,-0.22687 0.11906,-0.41249 0.26458,-0.41249 0.14552,0 0.26458,0.11203 0.26458,0.24897 0,0.13693 -0.11906,0.32255 -0.26458,0.41249 -0.14552,0.0899 -0.26458,-0.0221 -0.26458,-0.24897 z m 1.5875,-0.14791 c 0,-0.14552 0.11906,-0.26458 0.26458,-0.26458 0.14552,0 0.26458,0.11906 0.26458,0.26458 0,0.14552 -0.11906,0.26459 -0.26458,0.26459 -0.14552,0 -0.26458,-0.11907 -0.26458,-0.26459 z m 10.58333,-0.26458 c 0,-0.49389 0.0706,-0.56444 0.3175,-0.3175 0.24694,0.24694 0.24694,0.38806 0,0.635 -0.24694,0.24694 -0.3175,0.17639 -0.3175,-0.3175 z m 1.75965,0.14077 c -0.082,-0.21363 -0.0352,-0.45878 0.10399,-0.54479 0.13916,-0.086 0.25303,0.0888 0.25303,0.3884 0,0.63886 -0.14714,0.70331 -0.35702,0.15639 z m 1.34369,0.22854 c -0.10611,-0.10611 -0.19292,-0.37548 -0.19292,-0.59862 0,-0.29781 0.0783,-0.32742 0.29434,-0.11134 0.1619,0.16189 0.24871,0.43127 0.19293,0.59862 -0.0558,0.16735 -0.18824,0.21745 -0.29435,0.11134 z m -8.5273,-0.36931 c 0.0899,-0.14552 0.21603,-0.26458 0.2802,-0.26458 0.0642,0 0.11668,0.11906 0.11668,0.26458 0,0.14552 -0.12609,0.26458 -0.2802,0.26458 -0.15411,0 -0.20662,-0.11906 -0.11668,-0.26458 z m 12.86692,-0.30746 c -0.44944,-0.71966 -0.23328,-0.87975 0.33701,-0.2496 0.25112,0.27749 0.3536,0.56817 0.22772,0.64597 -0.12587,0.0778 -0.38,-0.10057 -0.56473,-0.39637 z m -14.32213,-0.0738 c 0,-0.22687 0.11906,-0.41249 0.26459,-0.41249 0.14552,0 0.26458,0.11203 0.26458,0.24897 0,0.13693 -0.11906,0.32255 -0.26458,0.41249 -0.14553,0.0899 -0.26459,-0.0221 -0.26459,-0.24897 z m 3.70417,0.11668 c 0,-0.14552 0.11906,-0.26459 0.26458,-0.26459 0.14552,0 0.26459,0.11907 0.26459,0.26459 0,0.14552 -0.11907,0.26458 -0.26459,0.26458 -0.14552,0 -0.26458,-0.11906 -0.26458,-0.26458 z m -5.65193,-0.39688 c 0.0838,-0.21828 0.19909,-0.39687 0.25628,-0.39687 0.0572,0 0.10398,0.17859 0.10398,0.39687 0,0.21828 -0.11532,0.39688 -0.25628,0.39688 -0.14095,0 -0.18774,-0.1786 -0.10398,-0.39688 z m 13.85401,-0.66146 c -0.18216,-0.34036 -0.1888,-0.52916 -0.0186,-0.52916 0.14552,0 0.39202,0.23812 0.54778,0.52916 0.18216,0.34037 0.1888,0.52917 0.0186,0.52917 -0.14552,0 -0.39203,-0.23813 -0.54779,-0.52917 z m -16.40416,0.0156 c 0,-0.13693 0.11906,-0.32255 0.26458,-0.41249 0.14552,-0.0899 0.26458,0.0221 0.26458,0.24897 0,0.22687 -0.11906,0.41249 -0.26458,0.41249 -0.14552,0 -0.26458,-0.11203 -0.26458,-0.24897 z m 19.57385,-0.1543 c -0.18407,-0.2218 -0.26106,-0.47689 -0.17108,-0.56687 0.19217,-0.19216 0.97014,0.39962 0.97014,0.73795 0,0.36445 -0.43123,0.27212 -0.79906,-0.17108 z m -6.0801,-0.25818 c 0,-0.21828 0.0468,-0.39688 0.10398,-0.39688 0.0572,0 0.17252,0.1786 0.25628,0.39688 0.0838,0.21828 0.037,0.39687 -0.10398,0.39687 -0.14096,0 -0.25628,-0.17859 -0.25628,-0.39687 z m -7.14375,-0.24897 c 0,-0.22687 0.11906,-0.41249 0.26458,-0.41249 0.14552,0 0.26458,0.11203 0.26458,0.24897 0,0.13693 -0.11906,0.32255 -0.26458,0.41249 -0.14552,0.0899 -0.26458,-0.0221 -0.26458,-0.24897 z m -4.49792,-0.26458 c 0,-0.22687 0.11906,-0.41249 0.26458,-0.41249 0.14552,0 0.26459,0.11203 0.26459,0.24896 0,0.13694 -0.11907,0.32256 -0.26459,0.41249 -0.14552,0.0899 -0.26458,-0.0221 -0.26458,-0.24896 z m 9.96597,-0.0597 c -0.25286,-0.25286 -0.2175,-0.61736 0.0599,-0.61736 0.12995,0 0.30481,0.1786 0.38857,0.39688 0.15476,0.4033 -0.12708,0.54186 -0.44846,0.22048 z m 8.43756,-0.60171 c -0.42359,-0.44213 -0.68594,-0.8881 -0.58299,-0.99104 0.25438,-0.2544 1.5831,1.1051 1.45517,1.48889 -0.0584,0.17526 -0.43111,-0.0375 -0.87218,-0.49785 z m -21.31395,-0.0157 c 0,-0.14552 0.12609,-0.26458 0.2802,-0.26458 0.15411,0 0.20661,0.11906 0.11668,0.26458 -0.0899,0.14552 -0.21603,0.26459 -0.2802,0.26459 -0.0642,0 -0.11668,-0.11907 -0.11668,-0.26459 z m 15.7345,-0.0133 c -0.25141,-0.40679 0.093,-0.66925 0.43255,-0.32966 0.19002,0.19001 0.19458,0.33801 0.0139,0.44969 -0.14814,0.0916 -0.34903,0.0375 -0.44642,-0.12003 z m 2.04109,-0.044 c -0.37062,-0.37063 -0.40878,-0.73643 -0.0768,-0.73643 0.24248,0 0.64155,0.79787 0.47992,0.9595 -0.0495,0.0495 -0.23091,-0.0509 -0.40311,-0.22307 z m 1.539,-0.20726 c 0,-0.14552 0.11203,-0.26458 0.24896,-0.26458 0.13694,0 0.32256,0.11906 0.41249,0.26458 0.0899,0.14552 -0.0221,0.26458 -0.24896,0.26458 -0.22687,0 -0.41249,-0.11906 -0.41249,-0.26458 z m 2.64052,-1.19651 c -0.51032,-0.61491 -0.19936,-0.68056 0.53843,-0.11368 0.49013,0.37659 0.54789,0.50668 0.22688,0.51107 -0.23684,0.003 -0.58123,-0.17559 -0.76531,-0.39739 z m -2.37594,-1.19985 c 0,-0.15411 0.11906,-0.20661 0.26458,-0.11667 0.14552,0.0899 0.26459,0.21603 0.26459,0.2802 0,0.0642 -0.11907,0.11667 -0.26459,0.11667 -0.14552,0 -0.26458,-0.12609 -0.26458,-0.2802 z m 2.77812,0.0156 c -0.0899,-0.14552 0.0221,-0.26458 0.24897,-0.26458 0.22687,0 0.41249,0.11906 0.41249,0.26458 0,0.14552 -0.11203,0.26458 -0.24897,0.26458 -0.13693,0 -0.32255,-0.11906 -0.41249,-0.26458 z m 0.40454,-1.048 c -0.21407,-0.13538 -0.31233,-0.32302 -0.21838,-0.41698 0.23134,-0.23134 1.26905,0.11576 1.26905,0.42448 0,0.31482 -0.54718,0.31092 -1.05067,-0.007 z m -3.71183,-0.27492 c 0,-0.14552 0.12609,-0.26458 0.2802,-0.26458 0.15411,0 0.20661,0.11906 0.11668,0.26458 -0.0899,0.14552 -0.21603,0.26459 -0.2802,0.26459 -0.0642,0 -0.11668,-0.11907 -0.11668,-0.26459 z m 1.71979,-0.79375 c -0.0899,-0.14552 -0.0374,-0.26458 0.11668,-0.26458 0.15411,0 0.2802,0.11906 0.2802,0.26458 0,0.14552 -0.0525,0.26459 -0.11668,0.26459 -0.0642,0 -0.19026,-0.11907 -0.2802,-0.26459 z m 2.38125,-0.52916 c -0.0899,-0.14552 0.0221,-0.26459 0.24897,-0.26459 0.22687,0 0.41249,0.11907 0.41249,0.26459 0,0.14552 -0.11203,0.26458 -0.24897,0.26458 -0.13693,0 -0.32255,-0.11906 -0.41249,-0.26458 z m -1.4552,-0.80937 c 0,-0.15411 0.11906,-0.20661 0.26458,-0.11667 0.14552,0.0899 0.26458,0.21602 0.26458,0.28019 0,0.0642 -0.11906,0.11668 -0.26458,0.11668 -0.14552,0 -0.26458,-0.12609 -0.26458,-0.2802 z m 1.25677,-0.43135 c -0.25466,-0.0665 -0.46302,-0.24522 -0.46302,-0.39704 0,-0.15715 0.2564,-0.20733 0.59531,-0.11651 0.32742,0.0877 0.69163,0.16117 0.80936,0.16316 0.11773,0.002 0.14047,0.12267 0.0505,0.26819 -0.17045,0.2758 -0.23188,0.28089 -0.99218,0.0822 z m -0.52609,-1.59225 c 0.32912,-0.0633 0.80537,-0.0609 1.05834,0.005 0.25296,0.0662 -0.0163,0.118 -0.5984,0.11507 -0.58208,-0.003 -0.78905,-0.0571 -0.45994,-0.12041 z m -1.65673,-0.8712 c 0.73507,-0.31587 1.25356,-0.31587 1.05834,0 -0.0899,0.14552 -0.48392,0.25621 -0.87551,0.24599 -0.63575,-0.0166 -0.65533,-0.043 -0.18283,-0.24599 z m 2.11667,-0.26458 c 0.0899,-0.14552 0.28258,-0.26459 0.4281,-0.26459 0.14553,0 0.191,0.11907 0.10107,0.26459 -0.0899,0.14552 -0.28259,0.26458 -0.42811,0.26458 -0.14552,0 -0.191,-0.11906 -0.10106,-0.26458 z m -1.19062,-1.05834 c 0.21828,-0.14106 0.635,-0.25648 0.92604,-0.25648 0.43818,0 0.46093,0.0441 0.13229,0.25648 -0.21828,0.14107 -0.635,0.25648 -0.92604,0.25648 -0.43819,0 -0.46093,-0.0441 -0.13229,-0.25648 z m -4.7625,-0.53747 c 0,-0.14095 0.17859,-0.25628 0.39687,-0.25628 0.21828,0 0.39688,0.0468 0.39688,0.10399 0,0.0572 -0.1786,0.17251 -0.39688,0.25628 -0.21828,0.0838 -0.39687,0.037 -0.39687,-0.10399 z m 3.96875,-0.3641 c 0.73542,-0.44761 1.58507,-0.57425 1.17739,-0.17548 -0.13824,0.13522 -0.60854,0.32061 -1.0451,0.41197 l -0.79375,0.16611 z m -4.36563,-0.68593 c 0.0899,-0.14552 0.21603,-0.26458 0.2802,-0.26458 0.0642,0 0.11668,0.11906 0.11668,0.26458 0,0.14552 -0.12609,0.26459 -0.2802,0.26459 -0.15411,0 -0.20662,-0.11907 -0.11668,-0.26459 z m 4.21402,-0.40255 c 0.28042,-0.21215 0.57463,-0.32096 0.6538,-0.24178 0.16607,0.16607 -0.50591,0.63835 -0.89907,0.63187 -0.14552,-0.002 -0.0352,-0.17794 0.24527,-0.39009 z m -4.87548,-0.33604 c 0,-0.27564 0.57176,-0.84891 0.84667,-0.84891 0.38984,0 0.21707,0.3985 -0.3175,0.73235 -0.29104,0.18176 -0.52917,0.23421 -0.52917,0.11656 z m 4.23334,-0.31974 c 0,-0.14552 0.12609,-0.26459 0.28019,-0.26459 0.15411,0 0.20662,0.11907 0.11668,0.26459 -0.0899,0.14552 -0.21603,0.26458 -0.2802,0.26458 -0.0642,0 -0.11667,-0.11906 -0.11667,-0.26458 z m -0.39688,-1.05834 c 0.0899,-0.14552 0.21603,-0.26458 0.2802,-0.26458 0.0642,0 0.11668,0.11906 0.11668,0.26458 0,0.14552 -0.12609,0.26459 -0.2802,0.26459 -0.15411,0 -0.20662,-0.11907 -0.11668,-0.26459 z m -5.29167,-1.05833 c 0.0899,-0.14552 0.28259,-0.26458 0.42811,-0.26458 0.14552,0 0.191,0.11906 0.10106,0.26458 -0.0899,0.14552 -0.28258,0.26458 -0.4281,0.26458 -0.14552,0 -0.191,-0.11906 -0.10107,-0.26458 z m 2.24896,0 c 0,-0.14552 0.12609,-0.26458 0.2802,-0.26458 0.15411,0 0.20661,0.11906 0.11668,0.26458 -0.0899,0.14552 -0.21603,0.26458 -0.2802,0.26458 -0.0642,0 -0.11668,-0.11906 -0.11668,-0.26458 z m -3.04271,-1.05833 c 0.0899,-0.14552 0.21603,-0.26459 0.2802,-0.26459 0.0642,0 0.11668,0.11907 0.11668,0.26459 0,0.14552 -0.12609,0.26458 -0.2802,0.26458 -0.15411,0 -0.20661,-0.11906 -0.11668,-0.26458 z m 1.05834,-0.52917 c 0.0899,-0.14552 0.21602,-0.26458 0.2802,-0.26458 0.0642,0 0.11667,0.11906 0.11667,0.26458 0,0.14552 -0.12609,0.26458 -0.2802,0.26458 -0.15411,0 -0.20661,-0.11906 -0.11667,-0.26458 z m -1.21929,-0.54458 c 0.34804,-0.28984 0.69653,-0.46325 0.77443,-0.38534 0.16871,0.16871 -0.76342,0.91326 -1.14264,0.9127 -0.14552,-2.1e-4 0.0202,-0.23753 0.36821,-0.52736 z m -0.89738,-0.77834 c 0.0899,-0.14552 0.28258,-0.26458 0.4281,-0.26458 0.14553,0 0.191,0.11906 0.10107,0.26458 -0.0899,0.14552 -0.28259,0.26459 -0.42811,0.26459 -0.14552,0 -0.191,-0.11907 -0.10106,-0.26459 z m -0.66146,-1.05833 c 0,-0.14552 0.12609,-0.26458 0.2802,-0.26458 0.15411,0 0.20661,0.11906 0.11668,0.26458 -0.0899,0.14552 -0.21603,0.26458 -0.2802,0.26458 -0.0642,0 -0.11668,-0.11906 -0.11668,-0.26458 z m -1.10794,-3.62032 c 0.19099,-0.0764 0.4192,-0.067 0.50712,0.0209 0.0879,0.0879 -0.0684,0.15045 -0.34727,0.13896 -0.30822,-0.0127 -0.37092,-0.0754 -0.15985,-0.15985 z m 14.48967,-0.54865 c -0.31146,-0.31145 0.43804,-1.08982 1.43257,-1.48776 1.04797,-0.41931 3.71328,-0.61182 3.34291,-0.24145 -0.30896,0.30896 -4.63079,1.8739 -4.77548,1.72921 z m -14.57235,-0.59353 c -0.0966,-0.15628 0.19485,-0.26292 0.71199,-0.26053 0.66261,0.003 0.779,0.0664 0.47863,0.26053 -0.51433,0.33239 -0.9852,0.33239 -1.19062,0 z m 1.4056,-1.50366 c 0.19099,-0.0764 0.4192,-0.067 0.50712,0.0209 0.0879,0.0879 -0.0684,0.15046 -0.34727,0.13897 -0.30823,-0.0127 -0.37092,-0.0754 -0.15985,-0.15985 z m 14.33711,-0.0838 c 0,-0.14552 0.12609,-0.26458 0.28019,-0.26458 0.15411,0 0.20662,0.11906 0.11668,0.26458 -0.0899,0.14553 -0.21603,0.26459 -0.2802,0.26459 -0.0642,0 -0.11667,-0.11906 -0.11667,-0.26459 z m 1.32291,-0.26458 c 0,-0.14552 0.12609,-0.26458 0.2802,-0.26458 0.15411,0 0.20661,0.11906 0.11668,0.26458 -0.0899,0.14552 -0.21603,0.26458 -0.2802,0.26458 -0.0642,0 -0.11668,-0.11906 -0.11668,-0.26458 z m -16.69274,-0.54959 c -0.27138,-0.1718 -0.17481,-0.23716 0.35472,-0.24011 0.79011,-0.004 0.93238,0.12534 0.37288,0.34004 -0.19509,0.0749 -0.52252,0.0299 -0.7276,-0.0999 z m 15.97505,-0.34499 c 0.0534,-0.16282 0.42795,-0.33494 0.8324,-0.38248 0.90903,-0.10685 0.68933,0.36908 -0.25358,0.54932 -0.42716,0.0817 -0.64014,0.0203 -0.57882,-0.16684 z m -15.82591,-1.21057 c 0.086,-0.13917 0.33116,-0.18596 0.54479,-0.10398 0.54692,0.20987 0.48247,0.35701 -0.15639,0.35701 -0.29963,0 -0.47441,-0.11387 -0.3884,-0.25303 z m 16.14673,-0.0115 c 0.0899,-0.14552 0.27556,-0.26458 0.41249,-0.26458 0.13693,0 0.24897,0.11906 0.24897,0.26458 0,0.14552 -0.18563,0.26458 -0.4125,0.26458 -0.22686,0 -0.3389,-0.11906 -0.24896,-0.26458 z m 1.19062,-0.26458 c 0,-0.14553 0.23813,-0.26459 0.52917,-0.26459 0.29104,0 0.52917,0.11906 0.52917,0.26459 0,0.14552 -0.23813,0.26458 -0.52917,0.26458 -0.29104,0 -0.52917,-0.11906 -0.52917,-0.26458 z m -16.93333,-0.80942 c 0,-0.15411 0.11906,-0.20661 0.26458,-0.11668 0.14552,0.0899 0.26459,0.21603 0.26459,0.2802 0,0.0642 -0.11907,0.11668 -0.26459,0.11668 -0.14552,0 -0.26458,-0.12609 -0.26458,-0.2802 z m 15.74271,0.0156 c 0.0899,-0.14552 0.33509,-0.26458 0.54478,-0.26458 0.20969,0 0.38126,0.11906 0.38126,0.26458 0,0.14552 -0.24515,0.26458 -0.54478,0.26458 -0.29963,0 -0.4712,-0.11906 -0.38126,-0.26458 z m -0.13229,-1.05833 c 0,-0.14552 0.11906,-0.26459 0.26458,-0.26459 0.14552,0 0.26458,0.11907 0.26458,0.26459 0,0.14552 -0.11906,0.26458 -0.26458,0.26458 -0.14552,0 -0.26458,-0.11906 -0.26458,-0.26458 z m 1.4552,-0.26459 c -0.0899,-0.14552 0.0221,-0.26458 0.24897,-0.26458 0.22687,0 0.41249,0.11906 0.41249,0.26458 0,0.14552 -0.11203,0.26459 -0.24897,0.26459 -0.13693,0 -0.32255,-0.11907 -0.41249,-0.26459 z m -12.30312,-0.54478 c 0,-0.15411 0.11906,-0.20661 0.26458,-0.11668 0.14552,0.0899 0.26459,0.21603 0.26459,0.2802 0,0.0642 -0.11907,0.11668 -0.26459,0.11668 -0.14552,0 -0.26458,-0.12609 -0.26458,-0.2802 z m 10.71562,-0.24897 c 0.0899,-0.14552 0.27556,-0.26458 0.41249,-0.26458 0.13694,0 0.24897,0.11906 0.24897,0.26458 0,0.14552 -0.18562,0.26459 -0.41249,0.26459 -0.22687,0 -0.3389,-0.11907 -0.24897,-0.26459 z m -9.23833,-1.22849 c -0.25208,-0.6569 0.0258,-0.7466 0.36266,-0.11709 0.16254,0.3037 0.18491,0.55183 0.0497,0.55183 -0.13507,0 -0.32066,-0.19563 -0.41241,-0.43474 z m 0.80614,-0.68974 c -0.26287,-0.980902 -0.17129,-1.165192 0.23011,-0.463022 0.44253,0.774122 0.48634,1.058342 0.16315,1.058342 -0.12855,0 -0.30552,-0.26789 -0.39326,-0.59532 z m -3.87093,0.0505 c 0,-0.15411 0.11906,-0.20661 0.26458,-0.11667 0.14552,0.0899 0.26459,0.21602 0.26459,0.2802 0,0.0642 -0.11907,0.11667 -0.26459,0.11667 -0.14552,0 -0.26458,-0.12609 -0.26458,-0.2802 z m 10.05417,0.0468 c 0,-0.14552 0.11906,-0.33816 0.26458,-0.4281 0.14552,-0.0899 0.26458,-0.0445 0.26458,0.10106 0,0.14552 -0.11906,0.33817 -0.26458,0.42811 -0.14552,0.0899 -0.26458,0.0445 -0.26458,-0.10107 z m 0.92604,-0.0312 c 0.0899,-0.14552 0.21602,-0.26458 0.2802,-0.26458 0.0642,0 0.11667,0.11906 0.11667,0.26458 0,0.14552 -0.12609,0.26459 -0.2802,0.26459 -0.15411,0 -0.20661,-0.11907 -0.11667,-0.26459 z m -6.02979,-0.529162 c -0.0761,-0.29104 -0.0444,-0.52917 0.0706,-0.52917 0.11493,0 0.27123,0.23813 0.34734,0.52917 0.0761,0.291042 0.0443,0.529162 -0.0706,0.529162 -0.11492,0 -0.27122,-0.23812 -0.34733,-0.529162 z m 0.87041,-0.0156 c 0,-0.15411 0.11906,-0.20662 0.26459,-0.11668 0.14552,0.0899 0.26458,0.21603 0.26458,0.280202 0,0.0642 -0.11906,0.11668 -0.26458,0.11668 -0.14553,0 -0.26459,-0.12609 -0.26459,-0.280202 z m 1.32292,0 c 0,-0.15411 0.11906,-0.20662 0.26458,-0.11668 0.14552,0.0899 0.26459,0.21603 0.26459,0.280202 0,0.0642 -0.11907,0.11668 -0.26459,0.11668 -0.14552,0 -0.26458,-0.12609 -0.26458,-0.280202 z m 1.10991,-0.38126 c 0.005,-0.43657 0.0647,-0.58313 0.13178,-0.3257 0.0671,0.25743 0.0627,0.61462 -0.01,0.79375 -0.0725,0.179132 -0.12736,-0.0315 -0.12197,-0.46805 z m -10.06043,28.798572 c 0.41419,-0.37483 0.48385,-0.86692 0.48385,-3.41794 0,-3.19558 -0.11231,-3.81709 -0.68976,-3.81709 -0.20271,0 -0.36857,-0.21085 -0.36857,-0.46856 0,-0.2577 -0.52928,-1.37272 -1.17618,-2.47782 -3.04841,-5.20759 -3.4537,-10.87153 -1.1334,-15.83904 0.44182,-0.94588 1.08269,-1.982 1.42415,-2.302472 0.42868,-0.40233 0.62731,-0.89369 0.64173,-1.5875 0.0115,-0.55265 0.0805,-0.82623 0.15326,-0.60795 0.0728,0.21829 0.18387,0.55912 0.24682,0.75741 0.0916,0.28855 0.19307,0.29528 0.50821,0.0337 0.32929,-0.2733 0.39374,-1.40418 0.39374,-6.90897 0,-3.6202 -0.0893,-6.58039 -0.19844,-6.57819 -0.10914,0.002 -1.44859,1.17636 -2.97656,2.60926 l -2.77812,2.60526 -0.0757,18.358972 c -0.0416,10.09743 -0.0161,18.60106 0.0568,18.89694 0.16828,0.68346 1.40856,1.09644 3.43762,1.14462 1.12673,0.0268 1.70253,-0.0858 2.05052,-0.40068 z m -4.54323,-2.47253 c 0,-0.43656 0.11906,-0.79375 0.26458,-0.79375 0.14552,0 0.26459,0.35719 0.26459,0.79375 0,0.43656 -0.11907,0.79375 -0.26459,0.79375 -0.14552,0 -0.26458,-0.35719 -0.26458,-0.79375 z m 3.55763,0.24153 c -0.0978,-0.1582 -0.0453,-0.42014 0.11667,-0.58208 0.21621,-0.21621 0.29445,-0.13978 0.29445,0.28763 0,0.63884 -0.13744,0.73728 -0.41112,0.29445 z m -2.43791,-3.9457 c 0,-0.50932 0.0545,-0.71768 0.121,-0.46302 0.0665,0.25466 0.0665,0.67138 0,0.92604 -0.0666,0.25467 -0.121,0.0463 -0.121,-0.46302 z m 1.56789,-2.64583 c 0,-0.36381 0.06,-0.51263 0.13345,-0.33073 0.0734,0.1819 0.0734,0.47955 0,0.66146 -0.0734,0.1819 -0.13345,0.0331 -0.13345,-0.33073 z m -2.60562,-5.42396 c 0.002,-0.87313 0.0509,-1.19842 0.10976,-0.72287 0.0589,0.47555 0.0577,1.18993 -0.003,1.5875 -0.0604,0.39758 -0.10855,0.008 -0.10706,-0.86463 z m -0.0402,-11.50938 c 0,-0.3638 0.0601,-0.51263 0.13346,-0.33073 0.0734,0.18191 0.0734,0.47956 0,0.66146 -0.0734,0.1819 -0.13346,0.0331 -0.13346,-0.33073 z m 1.60711,-4.762502 c 0,-0.50932 0.0545,-0.71768 0.121,-0.46302 0.0666,0.25467 0.0666,0.67138 0,0.92605 -0.0666,0.25466 -0.121,0.0463 -0.121,-0.46303 z m -1.91346,-2.64583 c 0,-0.49389 0.0705,-0.56444 0.3175,-0.3175 0.24694,0.24695 0.24694,0.38806 0,0.635 -0.24695,0.24695 -0.3175,0.17639 -0.3175,-0.3175 z m 3.46047,-1.21267 c 0.0127,-0.30823 0.0754,-0.37092 0.15985,-0.15985 0.0764,0.19099 0.067,0.41919 -0.0209,0.50711 -0.0879,0.0879 -0.15045,-0.0683 -0.13896,-0.34726 z m -2.2841,-0.1333 c -0.0978,-0.1582 -0.0453,-0.42014 0.11668,-0.58208 0.21621,-0.21621 0.29445,-0.13978 0.29445,0.28763 0,0.63884 -0.13744,0.73728 -0.41113,0.29445 z m -1.17637,-1.69674 c 0,-0.50932 0.11906,-0.92604 0.26458,-0.92604 0.14552,0 0.26458,0.41672 0.26458,0.92604 0,0.50933 -0.11906,0.92604 -0.26458,0.92604 -0.14552,0 -0.26458,-0.41671 -0.26458,-0.92604 z m 4.10104,-1.71979 c -0.0899,-0.14552 -0.0374,-0.26458 0.11667,-0.26458 0.15411,0 0.2802,0.11906 0.2802,0.26458 0,0.14552 -0.0525,0.26458 -0.11667,0.26458 -0.0642,0 -0.19027,-0.11906 -0.2802,-0.26458 z m 0.0113,-2.09838 c -0.0837,-0.13547 -0.0312,-0.32109 0.11667,-0.41249 0.1479,-0.0914 0.2689,0.0194 0.2689,0.2463 0,0.46475 -0.15877,0.53318 -0.38557,0.16619 z m -12.04984,35.054622 c 0,-0.20969 -0.11907,-0.45484 -0.26459,-0.54478 -0.14552,-0.0899 -0.26458,0.0816 -0.26458,0.38126 0,0.29963 0.11906,0.54478 0.26458,0.54478 0.14552,0 0.26459,-0.17156 0.26459,-0.38126 z M 78.207397,111.33052 c -0.04637,-1.55191 -0.188278,-2.55574 -0.369798,-2.61587 -0.41093,-0.13614 -0.623903,1.76228 -0.441624,3.93653 0.126021,1.50317 0.213476,1.75633 0.51911,1.50267 0.277127,-0.22999 0.349043,-0.92462 0.292312,-2.82333 z M 131.20922,86.970518 c 1.51251,-1.43909 2.66699,-2.70282 2.56551,-2.80829 -0.10148,-0.10547 -3.10874,-0.10404 -6.68281,0.003 l -6.4983,0.19493 0.0682,2.15034 0.0682,2.15033 0.92604,0.16361 0.92604,0.16361 -0.8599,0.0348 c -0.47294,0.0192 -0.85989,0.15389 -0.85989,0.29941 0,0.1641 1.44253,0.26458 3.79842,0.26458 h 3.79842 z m -4.9229,1.82277 c -0.0973,-0.15746 0.21774,-0.26458 0.77813,-0.26458 0.51791,0 0.94166,0.11906 0.94166,0.26458 0,0.14552 -0.35016,0.26459 -0.77814,0.26459 -0.42797,0 -0.85172,-0.11907 -0.94165,-0.26459 z m 2.51354,-1.05833 c 0,-0.14552 0.12609,-0.26458 0.2802,-0.26458 0.15411,0 0.20661,0.11906 0.11667,0.26458 -0.0899,0.14552 -0.21602,0.26458 -0.2802,0.26458 -0.0642,0 -0.11667,-0.11906 -0.11667,-0.26458 z m -0.13229,-1.5875 c 0.0899,-0.14552 0.27556,-0.26458 0.41249,-0.26458 0.13693,0 0.24897,0.11906 0.24897,0.26458 0,0.14552 -0.18563,0.26458 -0.4125,0.26458 -0.22686,0 -0.3389,-0.11906 -0.24896,-0.26458 z m 1.67018,0.0838 c 0.19099,-0.0764 0.4192,-0.067 0.50712,0.0209 0.0879,0.0879 -0.0684,0.15045 -0.34727,0.13896 -0.30822,-0.0127 -0.37092,-0.0754 -0.15985,-0.15985 z m -5.24206,-1.14217 c 0,-0.14553 0.12609,-0.26459 0.2802,-0.26459 0.15411,0 0.20661,0.11906 0.11668,0.26459 -0.0899,0.14552 -0.21603,0.26458 -0.2802,0.26458 -0.0642,0 -0.11668,-0.11906 -0.11668,-0.26458 z m 6.21771,0 c 0.0899,-0.14553 0.21603,-0.26459 0.2802,-0.26459 0.0642,0 0.11668,0.11906 0.11668,0.26459 0,0.14552 -0.12609,0.26458 -0.2802,0.26458 -0.15411,0 -0.20662,-0.11906 -0.11668,-0.26458 z m -53.415521,3.50572 c -0.02204,-0.40018 -0.127982,-0.86639 -0.235445,-1.03601 -0.226629,-0.35773 1.864154,-0.88221 3.5168,-0.88221 0.570161,0 2.856253,-0.2912 5.080206,-0.64711 2.22395,-0.35591 6.007428,-0.9605 8.407728,-1.34353 2.4003,-0.38302 4.424363,-0.76096 4.497913,-0.83985 0.0736,-0.0789 -0.342513,-0.059 -0.924596,0.0441 -0.582083,0.10316 -6.791764,0.26627 -13.799293,0.36248 l -12.74096,0.17493 2.908018,2.4474 c 1.59941,1.34606 3.002892,2.44739 3.118854,2.44739 0.115959,0 0.192807,-0.32742 0.170775,-0.7276 z m -3.337602,-2.44739 c 0,-0.14552 0.35016,-0.26458 0.778134,-0.26458 0.427974,0 0.85172,0.11906 0.941657,0.26458 0.09731,0.15746 -0.217739,0.26458 -0.778134,0.26458 -0.517912,0 -0.941657,-0.11906 -0.941657,-0.26458 z m 5.027083,-0.008 c 0,-0.14095 0.178594,-0.25628 0.396875,-0.25628 0.218281,0 0.396875,0.0468 0.396875,0.10398 0,0.0572 -0.178594,0.17252 -0.396875,0.25628 -0.218281,0.0838 -0.396875,0.037 -0.396875,-0.10398 z m 2.318189,-0.17883 c 0.329118,-0.0633 0.805368,-0.0609 1.058334,0.005 0.252965,0.0662 -0.01632,0.11801 -0.598398,0.11507 -0.582083,-0.003 -0.789054,-0.0571 -0.459936,-0.12041 z m -7.804655,-0.79674 c 0.402183,-0.0608 0.997495,-0.0592 1.322917,0.004 0.325421,0.0628 -0.0037,0.11256 -0.731243,0.11058 -0.727604,-0.002 -0.993857,-0.0534 -0.591674,-0.11419 z m 11.25769,-0.25546 c 0.190995,-0.0764 0.419198,-0.067 0.507119,0.0209 0.08792,0.0879 -0.06835,0.15045 -0.347266,0.13896 -0.308226,-0.0127 -0.370919,-0.0754 -0.159853,-0.15985 z m 3.704167,0 c 0.190994,-0.0764 0.419198,-0.067 0.507119,0.0209 0.08792,0.0879 -0.06835,0.15045 -0.347266,0.13896 -0.308226,-0.0127 -0.370919,-0.0754 -0.159853,-0.15985 z"
       id="path179" /></g></svg>
