<?xml version="1.0" encoding="UTF-8" standalone="no"?>
<svg
   xmlns:dc="http://purl.org/dc/elements/1.1/"
   xmlns:cc="http://creativecommons.org/ns#"
   xmlns:rdf="http://www.w3.org/1999/02/22-rdf-syntax-ns#"
   xmlns:svg="http://www.w3.org/2000/svg"
   xmlns="http://www.w3.org/2000/svg"
   xmlns:sodipodi="http://sodipodi.sourceforge.net/DTD/sodipodi-0.dtd"
   xmlns:inkscape="http://www.inkscape.org/namespaces/inkscape"
   width="222.30241mm"
   height="209.847mm"
   viewBox="0 0 222.30241 209.847"
   version="1.1"
   id="svg8"
   inkscape:version="1.0.2 (e86c870879, 2021-01-15, custom)"
   sodipodi:docname="layer-model.svg">
  <defs
     id="defs2">
    <marker
       style="overflow:visible"
       id="marker1305"
       refX="0"
       refY="0"
       orient="auto"
       inkscape:stockid="Arrow1Lend"
       inkscape:isstock="true">
      <path
         transform="matrix(-0.8,0,0,-0.8,-10,0)"
         style="fill:#000000;fill-opacity:1;fill-rule:evenodd;stroke:#000000;stroke-width:1pt;stroke-opacity:1"
         d="M 0,0 5,-5 -12.5,0 5,5 Z"
         id="path1303" />
    </marker>
    <marker
       style="overflow:visible"
       id="marker1271"
       refX="0"
       refY="0"
       orient="auto"
       inkscape:stockid="Arrow1Lend"
       inkscape:isstock="true">
      <path
         transform="matrix(-0.8,0,0,-0.8,-10,0)"
         style="fill:#000000;fill-opacity:1;fill-rule:evenodd;stroke:#000000;stroke-width:1pt;stroke-opacity:1"
         d="M 0,0 5,-5 -12.5,0 5,5 Z"
         id="path1269" />
    </marker>
    <marker
       style="overflow:visible"
       id="Arrow1Lend"
       refX="0"
       refY="0"
       orient="auto"
       inkscape:stockid="Arrow1Lend"
       inkscape:isstock="true">
      <path
         transform="matrix(-0.8,0,0,-0.8,-10,0)"
         style="fill:#000000;fill-opacity:1;fill-rule:evenodd;stroke:#000000;stroke-width:1pt;stroke-opacity:1"
         d="M 0,0 5,-5 -12.5,0 5,5 Z"
         id="path952" />
    </marker>
    <marker
       style="overflow:visible"
       id="Arrow2Lstart"
       refX="0"
       refY="0"
       orient="auto"
       inkscape:stockid="Arrow2Lstart"
       inkscape:isstock="true">
      <path
         transform="matrix(1.1,0,0,1.1,1.1,0)"
         d="M 8.7185878,4.0337352 -2.2072895,0.01601326 8.7185884,-4.0017078 c -1.7454984,2.3720609 -1.7354408,5.6174519 -6e-7,8.035443 z"
         style="fill:#000000;fill-opacity:1;fill-rule:evenodd;stroke:#000000;stroke-width:0.625;stroke-linejoin:round;stroke-opacity:1"
         id="path967" />
    </marker>
    <marker
       style="overflow:visible"
       id="marker1305-2"
       refX="0"
       refY="0"
       orient="auto"
       inkscape:stockid="Arrow1Lend"
       inkscape:isstock="true">
      <path
         transform="matrix(-0.8,0,0,-0.8,-10,0)"
         style="fill:#000000;fill-opacity:1;fill-rule:evenodd;stroke:#000000;stroke-width:1pt;stroke-opacity:1"
         d="M 0,0 5,-5 -12.5,0 5,5 Z"
         id="path1303-9" />
    </marker>
    <marker
       style="overflow:visible"
       id="marker1305-2-2"
       refX="0"
       refY="0"
       orient="auto"
       inkscape:stockid="Arrow1Lend"
       inkscape:isstock="true">
      <path
         transform="matrix(-0.8,0,0,-0.8,-10,0)"
         style="fill:#000000;fill-opacity:1;fill-rule:evenodd;stroke:#000000;stroke-width:1pt;stroke-opacity:1"
         d="M 0,0 5,-5 -12.5,0 5,5 Z"
         id="path1303-9-7" />
    </marker>
    <marker
       style="overflow:visible"
       id="marker1305-9"
       refX="0"
       refY="0"
       orient="auto"
       inkscape:stockid="Arrow1Lend"
       inkscape:isstock="true">
      <path
         transform="matrix(-0.8,0,0,-0.8,-10,0)"
         style="fill:#000000;fill-opacity:1;fill-rule:evenodd;stroke:#000000;stroke-width:1pt;stroke-opacity:1"
         d="M 0,0 5,-5 -12.5,0 5,5 Z"
         id="path1303-3" />
    </marker>
    <marker
       style="overflow:visible"
       id="marker1305-2-0"
       refX="0"
       refY="0"
       orient="auto"
       inkscape:stockid="Arrow1Lend"
       inkscape:isstock="true">
      <path
         transform="matrix(-0.8,0,0,-0.8,-10,0)"
         style="fill:#000000;fill-opacity:1;fill-rule:evenodd;stroke:#000000;stroke-width:1pt;stroke-opacity:1"
         d="M 0,0 5,-5 -12.5,0 5,5 Z"
         id="path1303-9-6" />
    </marker>
  </defs>
  <sodipodi:namedview
     id="base"
     pagecolor="#ffffff"
     bordercolor="#666666"
     borderopacity="1.0"
     inkscape:pageopacity="0.0"
     inkscape:pageshadow="2"
     inkscape:zoom="0.65057495"
     inkscape:cx="460.97844"
     inkscape:cy="474.41736"
     inkscape:document-units="mm"
     inkscape:current-layer="layer1"
     inkscape:document-rotation="0"
     showgrid="false"
     inkscape:window-width="1886"
     inkscape:window-height="1082"
     inkscape:window-x="0"
     inkscape:window-y="0"
     inkscape:window-maximized="1"
     inkscape:snap-text-baseline="false"
     fit-margin-top="0"
     fit-margin-left="0"
     fit-margin-right="0"
     fit-margin-bottom="0" />
  <metadata
     id="metadata5">
    <rdf:RDF>
      <cc:Work
         rdf:about="">
        <dc:format>image/svg+xml</dc:format>
        <dc:type
           rdf:resource="http://purl.org/dc/dcmitype/StillImage" />
        <dc:title></dc:title>
      </cc:Work>
    </rdf:RDF>
  </metadata>
  <g
     inkscape:label="Ebene 1"
     inkscape:groupmode="layer"
     id="layer1"
     transform="translate(4.3585649,-34.882458)">
    <path
       style="fill:#000000;stroke-width:0.264583"
       d="m 101.55209,244.6842 c -0.0505,-0.0438 -1.46105,-0.15934 -3.134541,-0.25677 -3.02596,-0.17618 -7.80458,-0.72396 -10.58333,-1.2132 -0.80037,-0.14091 -1.93146,-0.32874 -2.51354,-0.4174 -0.58209,-0.0887 -2.58568,-0.50672 -4.45243,-0.92902 -13.95922,-3.1579 -26.90552,-8.73869 -38.80634,-16.72835 -9.40782,-6.31598 -19.21043,-15.573 -25.82953,-24.39193 C 5.6795287,186.68748 -1.0684913,170.54031 -3.4493213,153.6517 c -0.16411,-1.16417 -0.34182,-2.41432 -0.39491,-2.77812 -0.52802,-3.61848 -0.69032,-14.29027 -0.29374,-19.31459 0.12061,-1.52797 0.25373,-2.83765 0.29583,-2.91041 0.0421,-0.0728 0.15553,-0.9062 0.25206,-1.85209 0.0965,-0.94588 0.22177,-1.89838 0.27831,-2.11666 0.0565,-0.21829 0.17675,-0.93266 0.26714,-1.5875 0.90422,-6.55068 3.82461998,-16.16109 7.31651,-24.077092 C 10.593939,84.683377 21.257489,70.813835 33.991509,60.360413 c 14.43553,-11.850192 32.86174,-20.307833 51.46146,-23.62083 5.04083,-0.897877 4.91206,-0.877749 7.02994,-1.098865 1.00848,-0.105289 2.06364,-0.233466 2.34481,-0.284835 3.54871,-0.648359 19.892641,-0.62496 24.082261,0.03448 0.29807,0.04691 1.25632,0.159531 2.12945,0.250258 2.42222,0.251693 7.59004,1.135182 10.9802,1.877172 39.6833,8.685303 71.53895,37.728001 82.129,74.876787 3.75105,13.15824 4.71842,26.63866 2.91602,40.6351 -2.2053,17.1252 -9.14939,33.72734 -20.18,48.24702 -4.05954,5.34357 -11.2288,12.80036 -16.44627,17.10583 -13.03093,10.75318 -27.28758,18.09701 -43.6113,22.46489 -3.27429,0.87613 -3.8279,0.99744 -8.90849,1.95209 -3.12569,0.58732 -7.17626,1.1432 -11.77396,1.61581 -1.75341,0.18024 -14.42549,0.41373 -14.59254,0.26888 z m 15.12171,-0.764 c 0.3638,-0.0731 1.4949,-0.21154 2.51354,-0.30775 6.94782,-0.65618 15.09754,-2.34757 22.62188,-4.69491 33.27591,-10.38096 59.79578,-35.76835 70.48701,-67.47698 1.08746,-3.22523 2.78982,-9.49334 3.17854,-11.70344 0.0768,-0.43657 0.26572,-1.4486 0.41982,-2.24896 0.15412,-0.80037 0.3302,-1.8124 0.39124,-2.24896 0.0611,-0.43656 0.23135,-1.62719 0.37843,-2.64583 0.87561,-6.06502 0.95327,-18.66941 0.15158,-24.60625 -1.47653,-10.93455 -3.73269,-19.1285 -7.80666,-28.352332 -13.00925,-29.454228 -39.50502,-51.724251 -71.83017,-60.37417 -5.24679,-1.403993 -11.57611,-2.647845 -15.74271,-3.093792 -0.94589,-0.101237 -1.9268,-0.22263 -2.17981,-0.269763 -2.70583,-0.504062 -16.44624,-0.696772 -21.632691,-0.3034 -6.22511,0.47215 -14.1981,1.780121 -19.64531,3.222817 -0.83675,0.221612 -2.20597,0.582375 -3.04271,0.801695 -0.83675,0.219321 -3.47875,1.064834 -5.87113,1.878918 -19.39069,6.598314 -36.35754,18.164235 -49.25108,33.573358 -7.29273,8.715568 -12.7248603,17.848061 -16.9181103,28.442709 -7.58064,19.15323 -8.90649,40.96575 -3.70700002,60.98646 8.85237002,34.08619 34.98775032,61.59951 69.86130032,73.54462 7.20534,2.46802 16.50677,4.61422 23.01779,5.31108 0.94589,0.10124 1.91409,0.22018 2.15156,0.26432 0.23747,0.0442 1.66622,0.16372 3.175,0.26573 1.50878,0.10201 2.795141,0.23291 2.858581,0.2909 0.16133,0.14745 15.61137,-0.0935 16.42111,-0.25607 z m -13.79247,-6.10871 c -0.054,-0.0472 -1.32042,-0.16528 -2.81431,-0.2624 -1.493881,-0.0971 -2.863101,-0.22382 -3.042701,-0.28157 -0.17961,-0.0577 -0.92753,-0.17009 -1.66204,-0.24966 -2.03212,-0.22015 -6.52174,-1.14756 -9.86605,-2.03799 -8.38588,-2.23277 -16.4871,-5.83328 -23.5835,-10.48148 -5.40246,-3.53865 -8.90669,-6.38246 -13.61838,-11.0518 -12.85503,-12.7395 -21.12662,-30.6145 -22.58883,-48.81468 -0.33621,-4.18488 -0.10139,-15.11686 0.34088,-15.86946 0.0446,-0.0758 0.16178,-0.85221 0.26052,-1.72533 0.27964,-2.47286 1.41825,-7.61232 2.43028,-10.96989 7.91128,-26.2466 29.63325,-46.996376 56.75903,-54.218702 3.16173,-0.841822 7.50168,-1.751462 9.65398,-2.023448 0.70563,-0.08917 1.58062,-0.211572 1.94442,-0.272008 4.019711,-0.667742 16.505151,-0.675537 20.372921,-0.01273 0.3638,0.06235 1.20823,0.187928 1.8765,0.279074 9.71489,1.32502 20.72726,5.105032 29.46626,10.114341 17.41177,9.980661 30.663,26.202713 36.60579,44.812523 6.22205,19.4843 4.60161,40.21695 -4.56836,58.44993 -10.56083,20.99849 -29.94797,36.35024 -53.31456,42.21727 -3.02814,0.76032 -7.65015,1.60129 -10.19792,1.85549 -1.01865,0.10163 -2.09021,0.23717 -2.38125,0.3012 -0.6319,0.13903 -11.93136,0.36488 -12.07268,0.24131 z m 12.8757,-0.77045 c 0.29615,-0.0691 1.24865,-0.20624 2.11667,-0.3048 5.11905,-0.58127 12.30958,-2.3028 17.74449,-4.24834 4.72494,-1.69138 12.76994,-5.71751 17.03894,-8.52714 6.4407,-4.23894 12.06456,-9.14588 16.91837,-14.76166 3.24146,-3.75032 4.90646,-6.0439 8.38137,-11.54559 0.95175,-1.50686 3.90428,-7.49478 4.93222,-10.00285 2.7621,-6.73926 4.78128,-14.85486 5.41994,-21.78415 0.31719,-3.4414 0.21661,-13.80962 -0.16212,-16.71273 -0.82336,-6.31119 -2.46384,-12.83784 -4.64588,-18.48363 -1.1539,-2.98559 -4.33324,-9.57892 -5.54018,-11.48925 -3.09536,-4.89932 -4.93339,-7.4818 -7.66748,-10.77295 -1.86637,-2.24664 -8.42404,-8.719392 -10.62478,-10.487192 -10.87885,-8.7387 -23.95942,-14.743477 -37.30625,-17.125838 -5.8856,-1.05056 -8.09539,-1.226759 -15.21354,-1.213061 -7.467901,0.01437 -10.377261,0.288512 -16.743171,1.577684 -13.47111,2.72806 -26.2882,8.985262 -37.09954,18.111695 -1.83835,1.551852 -7.60093,7.453062 -9.30962,9.533592 -8.83251,10.75456 -14.57554,23.01336 -16.85756,35.98333 -0.89713,5.09885 -1.07857,7.438 -1.06722,13.75833 0.0128,7.14285 0.36092,10.51976 1.71067,16.59514 4.43363,19.95632 16.70146,37.46078 34.29243,48.93046 5.17835,3.37639 12.51428,6.94926 18.48339,9.00208 4.95856,1.70529 13.81249,3.56216 18.78541,3.93972 1.309691,0.0994 2.438501,0.2329 2.508461,0.29658 0.16389,0.14917 13.19269,-0.10329 13.90498,-0.26943 z m -12.97385,-8.0373 c -7.630651,-0.70899 -13.827381,-2.35917 -20.108341,-5.35484 -5.78995,-2.76148 -10.04632,-5.74267 -14.85918,-10.40746 -8.29813,-8.04283 -13.25329,-17.83477 -15.0254,-29.69182 -0.28139,-1.88278 -0.37879,-8.94291 -0.14965,-10.84792 0.38318,-3.18566 0.54756,-4.16303 1.11248,-6.61458 1.65116,-7.16539 5.18486,-14.36008 9.96273,-20.28431 3.34833,-4.15169 8.99067,-9.04891 14.205,-12.3291 3.49671,-2.19968 10.75231,-5.18398 15.20506,-6.25399 9.359811,-2.2492 19.153551,-2.21008 28.193711,0.11261 9.19708,2.36302 17.52111,7.00607 24.39554,13.60756 9.48952,9.11275 14.62533,19.76867 15.72254,32.62153 1.04853,12.28256 -2.74683,24.56817 -10.77366,34.87443 -3.27602,4.20633 -9.1589,9.36258 -14.55181,12.75442 -4.52662,2.84699 -12.12871,5.72301 -18.38007,6.95355 -4.00144,0.78765 -11.24325,1.20423 -14.94895,0.85992 z m 10.9802,-0.74608 c 11.60986,-1.4683 20.95461,-5.58539 29.76563,-13.11405 9.43409,-8.06106 15.38135,-18.87664 17.17293,-31.23037 0.49749,-3.43048 0.39167,-11.56456 -0.19062,-14.65112 -2.63726,-13.97951 -9.82535,-25.08079 -21.61252,-33.37838 -12.25212,-8.6249 -28.24348,-11.81894 -43.523961,-8.69326 -8.99435,1.83982 -17.69264,6.14552 -24.87505,12.31329 -10.92463,9.38132 -17.32039,22.87089 -17.5688,37.05511 -0.28839,16.46667 7.74004,31.9093 21.80635,41.94436 7.43983,5.30765 17.40088,9.06566 25.929171,9.78229 1.16417,0.0978 2.16012,0.21618 2.21322,0.26301 0.26599,0.23458 8.46059,0.0156 10.88365,-0.29088 z m -11.1125,-5.16796 c -5.212121,-0.58902 -9.285571,-1.74235 -13.925061,-3.94264 -4.24373,-2.0126 -7.04723,-4.01637 -10.43414,-7.4577 -14.88062,-15.11971 -9.8501,-38.24166 10.41069,-47.85099 6.33665,-3.00536 11.961371,-4.21224 19.077681,-4.09346 6.73259,0.11238 11.88204,1.2772 17.6028,3.98182 10.12654,4.78754 16.72013,12.74069 18.84714,22.7333 0.43816,2.05846 0.43472,8.01958 -0.006,10.05417 -1.87339,8.65233 -6.94787,15.66143 -14.99485,20.71157 -3.18936,2.00157 -8.60987,4.1802 -12.61966,5.07212 -3.81261,0.84806 -10.23658,1.21246 -13.95878,0.79181 z m 10.48265,-0.64889 c 12.7024,-1.79545 23.60438,-9.20892 28.3912,-19.30635 1.78038,-3.75558 2.61798,-7.52439 2.61798,-11.77964 0,-8.74086 -4.18203,-16.81371 -11.84076,-22.85699 -2.40306,-1.89619 -3.93385,-2.82844 -7.16148,-4.36133 -6.20537,-2.94711 -11.42459,-4.02044 -18.91771,-3.89044 -6.792451,0.11784 -11.337711,1.18873 -17.462501,4.11424 -9.06949,4.33205 -15.51682,11.79192 -17.85618,20.66044 -0.76076,2.88403 -0.94452,8.2134 -0.38262,11.09658 1.1606,5.95522 3.99885,11.23766 8.35504,15.55009 5.92315,5.86366 14.50687,9.94208 22.716051,10.7932 0.94589,0.0981 1.76328,0.21748 1.81643,0.26536 0.25614,0.23074 7.59775,0.0155 9.72455,-0.28516 z"
       id="path24"
       sodipodi:nodetypes="ssssssssssssssssssssssssssssssssssssccscsssssssssssssssssssssssssscssssssssssssssssssssssssssssssssssssssssssssssssssssssscssssssssssccsssssscsscccsssssssssssc" />
    <path
       style="opacity:1;fill:#ff8080;fill-opacity:1;stroke:#000000;stroke-width:0.357143;stroke-linecap:round;stroke-linejoin:round;stroke-miterlimit:4;stroke-dasharray:none;stroke-dashoffset:0;stroke-opacity:1;paint-order:stroke fill markers"
       d="m 101.22187,222.36115 c -7.263477,-1.12352 -13.542727,-3.73595 -18.993303,-7.90203 -1.841288,-1.40738 -4.758319,-4.33742 -6.138809,-6.16621 -4.349909,-5.76252 -6.242473,-12.04783 -5.696955,-18.91986 0.433837,-5.4648 2.208291,-10.02599 5.714894,-14.68989 5.656342,-7.52319 15.650501,-13.00217 25.720943,-14.10074 2.7057,-0.29516 8.823,-0.24883 11.43156,0.0866 6.45472,0.82995 13.26173,3.59802 18.47928,7.51461 2.11202,1.5854 5.61965,5.1849 7.13349,7.32033 2.35966,3.32853 4.1125,7.48443 4.8035,11.38886 0.41601,2.35062 0.40783,6.83468 -0.0168,9.20729 -2.13941,11.95393 -12.30346,21.82063 -26.09031,25.32702 -3.5488,0.90256 -5.24708,1.10645 -10.11087,1.21387 -3.19955,0.0707 -4.28566,0.0219 -6.23662,-0.27983 z"
       id="path26" />
    <path
       style="opacity:1;fill:#ffb380;fill-opacity:1;stroke:#000000;stroke-width:1.42857;stroke-linecap:round;stroke-linejoin:round;stroke-miterlimit:4;stroke-dasharray:none;stroke-dashoffset:0;stroke-opacity:1;paint-order:stroke fill markers"
       d="M 92.973085,226.48068 C 83.37125,223.96486 75.918176,219.54765 68.209117,211.80383 60.541148,204.10129 56.744854,197.55934 54.579424,188.3165 c -1.69418,-7.23135 -1.173797,-19.32915 1.121834,-26.08036 3.671199,-10.79663 11.375601,-20.56326 21.11957,-26.7727 9.974051,-6.35605 18.2245,-8.72887 30.409912,-8.74588 15.62091,-0.0218 27.52962,4.87577 38.57514,15.8644 5.29677,5.2695 7.08994,7.67805 9.58841,12.87894 7.03142,14.63682 7.05503,29.29586 0.0701,43.53773 -6.68844,13.63737 -20.48404,24.28945 -35.97774,27.77971 -7.45994,1.68049 -19.47879,1.54556 -26.513589,-0.29766 z m 23.412815,-3.84165 c 11.16316,-2.31086 21.29696,-9.92941 25.77087,-19.37446 2.17243,-4.5863 2.42556,-5.83236 2.42556,-11.94016 0,-6.15955 -0.23665,-7.30015 -2.44543,-11.78684 -4.24193,-8.61658 -12.03706,-14.915 -22.87898,-18.4861 -5.80799,-1.91303 -18.50339,-1.92437 -24.190473,-0.0216 -10.915068,3.65192 -18.642859,9.90316 -22.87897,18.50744 -2.208848,4.48653 -2.445438,5.62692 -2.445438,11.78684 0,6.10811 0.2531,7.35409 2.425568,11.94044 4.342288,9.1672 13.770715,16.48945 24.616489,19.11751 4.999014,1.21133 14.395374,1.33449 19.600804,0.25694 z"
       id="path34" />
    <path
       style="opacity:1;fill:#ffe680;fill-opacity:1;stroke:#000000;stroke-width:1.42857;stroke-linecap:round;stroke-linejoin:round;stroke-miterlimit:4;stroke-dasharray:none;stroke-dashoffset:0;stroke-opacity:1;paint-order:stroke fill markers"
       d="M 94.141591,235.98324 C 81.665058,233.77839 68.919126,228.5273 59.145577,221.56552 48.776027,214.17921 38.334775,201.46254 33.02554,189.75329 c -1.29659,-2.85956 -3.223498,-8.4348 -4.282043,-12.38942 -1.651212,-6.16884 -1.932649,-8.85468 -1.981173,-18.90749 -0.04821,-9.99235 0.199945,-12.66073 1.685792,-18.12618 6.065944,-22.31283 19.999854,-39.95734 40.196161,-50.9004 15.000605,-8.12784 35.377913,-11.436427 52.250693,-8.483752 31.50517,5.513291 56.35719,27.658032 64.76156,57.706712 1.87838,6.71586 2.04525,8.4078 1.99061,20.1816 -0.0541,11.64435 -0.25003,13.4901 -2.08685,19.65476 -8.4247,28.27445 -29.64283,48.55851 -58.66944,56.08664 -9.01215,2.33732 -23.87336,2.97602 -32.749259,1.40748 z m 30.979839,-9.6212 c 13.56827,-4.49916 25.24246,-14.41857 31.14713,-26.46535 4.54317,-9.26901 5.60329,-14.34901 5.17331,-24.78986 -0.41218,-10.00887 -2.43669,-16.67998 -7.49025,-24.68173 -3.51741,-5.56942 -12.32311,-14.05435 -18.19856,-17.53562 -11.28602,-6.6871 -26.05318,-9.16074 -39.420031,-6.60324 -11.464687,2.19356 -20.483724,6.99427 -29.210476,15.54835 -4.704186,4.6111 -6.459141,7.02732 -9.334156,12.85119 -5.527437,11.19684 -6.912954,20.99305 -4.573905,32.33967 4.497758,21.81854 22.450954,38.19528 46.04586,42.00261 1.247328,0.20126 5.925318,0.23121 10.395558,0.0665 6.59664,-0.24299 9.50999,-0.75774 15.46552,-2.73256 z"
       id="path38" />
    <path
       style="opacity:1;fill:#87de87;fill-opacity:1;stroke:#000000;stroke-width:1.42857;stroke-linecap:round;stroke-linejoin:round;stroke-miterlimit:4;stroke-dasharray:none;stroke-dashoffset:0;stroke-opacity:1;paint-order:stroke fill markers"
       d="M 90.566911,242.76983 C 58.936768,238.12531 30.997853,221.00717 14.105557,195.92204 2.1517083,178.17054 -3.3896985,160.2399 -3.3136838,139.55757 -3.2377219,118.8965 2.2126153,101.11289 13.831025,83.617097 19.449267,75.15675 34.203836,60.683742 43.365933,54.645804 56.738636,45.833013 71.210841,40.13054 87.16511,37.387645 c 7.728453,-1.328691 11.141895,-1.501636 23.05656,-1.168182 14.88724,0.416646 19.96995,1.231241 32.50595,5.209661 37.15318,11.79091 65.43955,43.008613 72.64361,80.171716 1.78402,9.20306 1.9305,25.52767 0.31235,34.80687 -8.79354,50.4259 -55.73989,87.84948 -109.61965,87.38401 -4.98928,-0.0431 -11.962953,-0.50295 -15.497019,-1.02189 z m 32.316689,-6.08144 c 40.16237,-7.61867 68.79,-43.22873 66.38357,-82.57486 -2.24244,-36.66479 -28.60512,-66.188027 -65.99953,-73.912056 -7.52782,-1.554912 -24.484914,-1.5509 -31.979713,0.0076 -31.388632,6.526949 -54.864819,28.024116 -63.61414,58.251536 -1.528604,5.28099 -1.739874,7.66259 -1.740297,19.61783 0,11.86797 0.223044,14.42841 1.748631,20.03273 1.941274,7.13142 6.989974,18.35242 10.774653,23.94722 11.914347,17.61272 30.469787,29.75396 52.866078,34.59148 6.72338,1.45223 23.997208,1.47332 31.560748,0.0386 z"
       id="path40" />
    <text
       xml:space="preserve"
       style="font-style:normal;font-variant:normal;font-weight:600;font-stretch:normal;font-size:8.46667px;line-height:39.6875px;font-family:Vollkorn;-inkscape-font-specification:'Vollkorn Semi-Bold';letter-spacing:0px;word-spacing:0px;fill:#000000;fill-opacity:1;stroke:none;stroke-width:0.264583px;stroke-linecap:butt;stroke-linejoin:miter;stroke-opacity:1"
       x="87.296181"
       y="196.06628"
       id="text885"><tspan
         sodipodi:role="line"
         id="tspan883"
         x="87.296181"
         y="196.06628"
         style="font-size:8.46667px;stroke-width:0.264583px">Hardware</tspan></text>
    <text
       xml:space="preserve"
       style="font-style:normal;font-variant:normal;font-weight:600;font-stretch:normal;font-size:8.46667px;line-height:39.6875px;font-family:Vollkorn;-inkscape-font-specification:'Vollkorn Semi-Bold';letter-spacing:0px;word-spacing:0px;fill:#000000;fill-opacity:1;stroke:none;stroke-width:0.264583px;stroke-linecap:butt;stroke-linejoin:miter;stroke-opacity:1"
       x="94.15815"
       y="146.1125"
       id="text885-3"><tspan
         sodipodi:role="line"
         id="tspan883-6"
         x="94.15815"
         y="146.1125"
         style="font-size:8.46667px;stroke-width:0.264583px">Kernel</tspan></text>
    <text
       xml:space="preserve"
       style="font-style:normal;font-variant:normal;font-weight:600;font-stretch:normal;font-size:8.46667px;line-height:39.6875px;font-family:Vollkorn;-inkscape-font-specification:'Vollkorn Semi-Bold';letter-spacing:0px;word-spacing:0px;fill:#000000;fill-opacity:1;stroke:none;stroke-width:0.264583px;stroke-linecap:butt;stroke-linejoin:miter;stroke-opacity:1"
       x="81.2855"
       y="104.78915"
       id="text885-3-7"><tspan
         sodipodi:role="line"
         id="tspan883-6-5"
         x="81.2855"
         y="104.78915"
         style="font-size:8.46667px;stroke-width:0.264583px">Libraries / Shell</tspan></text>
    <text
       xml:space="preserve"
       style="font-style:normal;font-variant:normal;font-weight:600;font-stretch:normal;font-size:8.46667px;line-height:39.6875px;font-family:Vollkorn;-inkscape-font-specification:'Vollkorn Semi-Bold';letter-spacing:0px;word-spacing:0px;fill:#000000;fill-opacity:1;stroke:none;stroke-width:0.264583px;stroke-linecap:butt;stroke-linejoin:miter;stroke-opacity:1"
       x="70.986031"
       y="61.338531"
       id="text885-3-3"><tspan
         sodipodi:role="line"
         x="70.986031"
         y="61.338531"
         style="font-size:8.46667px;stroke-width:0.264583px"
         id="tspan1737">Applications / User</tspan></text>
    <path
       style="fill:none;fill-rule:evenodd;stroke:#000000;stroke-width:0.265;stroke-linecap:butt;stroke-linejoin:miter;stroke-miterlimit:4;stroke-dasharray:none;stroke-opacity:1;marker-end:url(#marker1305)"
       d="m 109.2048,65.427183 -0.36174,25.590908"
       id="path947" />
    <path
       style="fill:none;fill-rule:evenodd;stroke:#000000;stroke-width:0.265;stroke-linecap:butt;stroke-linejoin:miter;stroke-miterlimit:4;stroke-dasharray:none;stroke-opacity:1;marker-end:url(#marker1305-2)"
       d="m 107.9107,109.09481 -0.36174,25.5909"
       id="path947-1" />
    <path
       style="fill:none;fill-rule:evenodd;stroke:#000000;stroke-width:0.265;stroke-linecap:butt;stroke-linejoin:miter;stroke-miterlimit:4;stroke-dasharray:none;stroke-opacity:1;marker-end:url(#marker1305-2-2)"
       d="m 107.34568,149.53857 -0.36174,25.59091"
       id="path947-1-0" />
    <path
       style="fill:none;fill-rule:evenodd;stroke:#000000;stroke-width:0.265;stroke-linecap:butt;stroke-linejoin:miter;stroke-miterlimit:4;stroke-dasharray:none;stroke-opacity:1;marker-end:url(#marker1305-2-0)"
       d="m 148.79335,125.41841 -7.56916,11.90847"
       id="path947-1-2"
       sodipodi:nodetypes="cc" />
    <text
       xml:space="preserve"
       style="font-style:normal;font-variant:normal;font-weight:600;font-stretch:normal;font-size:8.46667px;line-height:39.6875px;font-family:Vollkorn;-inkscape-font-specification:'Vollkorn Semi-Bold';letter-spacing:0px;word-spacing:0px;fill:#000000;fill-opacity:1;stroke:none;stroke-width:0.264583px;stroke-linecap:butt;stroke-linejoin:miter;stroke-opacity:1"
       x="136.93597"
       y="124.35455"
       id="text885-3-6"><tspan
         sodipodi:role="line"
         id="tspan883-6-1"
         x="136.93597"
         y="124.35455"
         style="font-size:8.46667px;stroke-width:0.264583px">Syscalls</tspan></text>
  </g>
</svg>
